<svg width="139" height="86" viewBox="0 0 139 86" fill="none" xmlns="http://www.w3.org/2000/svg">
<path d="M138 43.2307C138 66.1813 116.773 84.9999 90.3067 84.9999C63.8405 84.9999 42.6133 66.1813 42.6133 43.2307C42.6133 20.2801 63.8405 1.46143 90.3067 1.46143C116.773 1.46143 138 20.2801 138 43.2307Z" stroke="#9EF3DF" stroke-width="2"/>
<path d="M127.597 43.2307C127.597 66.1813 106.369 84.9999 79.9033 84.9999C53.4372 84.9999 32.21 66.1813 32.21 43.2307C32.21 20.2801 53.4372 1.46143 79.9033 1.46143C106.369 1.46143 127.597 20.2801 127.597 43.2307Z" stroke="#9EF3DF" stroke-width="2"/>
<path d="M117.193 43.2307C117.193 66.1813 95.9662 84.9999 69.5 84.9999C43.0339 84.9999 21.8066 66.1813 21.8066 43.2307C21.8066 20.2801 43.0339 1.46143 69.5 1.46143C95.9662 1.46143 117.193 20.2801 117.193 43.2307Z" stroke="#9EF3DF" stroke-width="2"/>
<path d="M106.79 43.2307C106.79 66.1813 85.5628 84.9999 59.0967 84.9999C32.6306 84.9999 11.4033 66.1813 11.4033 43.2307C11.4033 20.2801 32.6306 1.46143 59.0967 1.46143C85.5628 1.46143 106.79 20.2801 106.79 43.2307Z" stroke="#9EF3DF" stroke-width="2"/>
<path d="M96.3868 43.2307C96.3868 66.1813 75.1595 84.9999 48.6934 84.9999C22.2272 84.9999 1 66.1813 1 43.2307C1 20.2801 22.2272 1.46143 48.6934 1.46143C75.1595 1.46143 96.3868 20.2801 96.3868 43.2307Z" stroke="#9EF3DF" stroke-width="2"/>
</svg>
