<svg width="1440" height="6400" viewBox="0 0 1440 6400" fill="none" xmlns="http://www.w3.org/2000/svg">
<g clip-path="url(#clip0_330_277)">
<rect width="1440" height="6400" fill="white"/>
<path d="M171.875 1002.5C171.875 1035.8 141.1 1063 102.856 1063C64.6127 1063 33.8379 1035.8 33.8379 1002.5C33.8379 969.205 64.6127 942 102.856 942C141.1 942 171.875 969.205 171.875 1002.5Z" stroke="#9EF3DF" stroke-width="2"/>
<path d="M156.916 1002.5C156.916 1035.8 126.141 1063 87.897 1063C49.6533 1063 18.8784 1035.8 18.8784 1002.5C18.8784 969.205 49.6533 942 87.897 942C126.141 942 156.916 969.205 156.916 1002.5Z" stroke="#9EF3DF" stroke-width="2"/>
<path d="M141.956 1002.5C141.956 1035.8 111.181 1063 72.9375 1063C34.6938 1063 3.91895 1035.8 3.91895 1002.5C3.91895 969.205 34.6938 942 72.9375 942C111.181 942 141.956 969.205 141.956 1002.5Z" stroke="#9EF3DF" stroke-width="2"/>
<path d="M126.997 1002.5C126.997 1035.8 96.2218 1063 57.9781 1063C19.7343 1063 -11.0405 1035.8 -11.0405 1002.5C-11.0405 969.205 19.7343 942 57.9781 942C96.2218 942 126.997 969.205 126.997 1002.5Z" stroke="#9EF3DF" stroke-width="2"/>
<path d="M112.037 1002.5C112.037 1035.8 81.2623 1063 43.0186 1063C4.77485 1063 -26 1035.8 -26 1002.5C-26 969.205 4.77485 942 43.0186 942C81.2623 942 112.037 969.205 112.037 1002.5Z" stroke="#9EF3DF" stroke-width="2"/>
<path d="M1420.88 3514.65C1420.88 3533.67 1403.27 3549.31 1381.28 3549.31C1359.29 3549.31 1341.69 3533.67 1341.69 3514.65C1341.69 3495.63 1359.29 3480 1381.28 3480C1403.27 3480 1420.88 3495.63 1420.88 3514.65Z" stroke="#9EF3DF" stroke-width="2"/>
<path d="M1412.2 3514.65C1412.2 3533.67 1394.6 3549.31 1372.61 3549.31C1350.62 3549.31 1333.02 3533.67 1333.02 3514.65C1333.02 3495.63 1350.62 3480 1372.61 3480C1394.6 3480 1412.2 3495.63 1412.2 3514.65Z" stroke="#9EF3DF" stroke-width="2"/>
<path d="M1403.53 3514.65C1403.53 3533.67 1385.93 3549.31 1363.94 3549.31C1341.95 3549.31 1324.34 3533.67 1324.34 3514.65C1324.34 3495.63 1341.95 3480 1363.94 3480C1385.93 3480 1403.53 3495.63 1403.53 3514.65Z" stroke="#9EF3DF" stroke-width="2"/>
<path d="M1394.86 3514.65C1394.86 3533.67 1377.26 3549.31 1355.27 3549.31C1333.27 3549.31 1315.67 3533.67 1315.67 3514.65C1315.67 3495.63 1333.27 3480 1355.27 3480C1377.26 3480 1394.86 3495.63 1394.86 3514.65Z" stroke="#9EF3DF" stroke-width="2"/>
<path d="M1386.18 3514.65C1386.18 3533.67 1368.58 3549.31 1346.59 3549.31C1324.6 3549.31 1307 3533.67 1307 3514.65C1307 3495.63 1324.6 3480 1346.59 3480C1368.58 3480 1386.18 3495.63 1386.18 3514.65Z" stroke="#9EF3DF" stroke-width="2"/>
<path d="M1437.92 5352C1456.62 5352 1472 5369.31 1472 5390.94C1472 5412.56 1456.62 5429.87 1437.92 5429.87C1419.22 5429.87 1403.85 5412.56 1403.85 5390.94C1403.85 5369.31 1419.22 5352 1437.92 5352Z" stroke="#FFC88C" stroke-width="2"/>
<path d="M1437.92 5360.53C1456.62 5360.53 1472 5377.84 1472 5399.47C1472 5421.1 1456.62 5438.4 1437.92 5438.4C1419.22 5438.4 1403.85 5421.1 1403.85 5399.47C1403.85 5377.84 1419.22 5360.53 1437.92 5360.53Z" stroke="#FFC88C" stroke-width="2"/>
<path d="M1437.92 5369.06C1456.62 5369.06 1472 5386.37 1472 5408C1472 5429.63 1456.62 5446.94 1437.92 5446.94C1419.22 5446.94 1403.85 5429.63 1403.85 5408C1403.85 5386.37 1419.22 5369.06 1437.92 5369.06Z" stroke="#FFC88C" stroke-width="2"/>
<path d="M1437.92 5377.6C1456.62 5377.6 1472 5394.9 1472 5416.53C1472 5438.16 1456.62 5455.47 1437.92 5455.47C1419.22 5455.47 1403.85 5438.16 1403.85 5416.53C1403.85 5394.9 1419.22 5377.6 1437.92 5377.6Z" stroke="#FFC88C" stroke-width="2"/>
<path d="M1437.92 5386.13C1456.62 5386.13 1472 5403.44 1472 5425.06C1472 5446.69 1456.62 5464 1437.92 5464C1419.22 5464 1403.85 5446.69 1403.85 5425.06C1403.85 5403.44 1419.22 5386.13 1437.92 5386.13Z" stroke="#FFC88C" stroke-width="2"/>
<path d="M134 5966.23C134 5997.17 105.401 6022.46 69.8421 6022.46C34.2828 6022.46 5.68408 5997.17 5.68408 5966.23C5.68408 5935.29 34.2828 5910 69.8421 5910C105.401 5910 134 5935.29 134 5966.23Z" stroke="#FFC88C" stroke-width="2"/>
<path d="M120.079 5966.23C120.079 5997.17 91.48 6022.46 55.9207 6022.46C20.3614 6022.46 -8.2373 5997.17 -8.2373 5966.23C-8.2373 5935.29 20.3614 5910 55.9207 5910C91.48 5910 120.079 5935.29 120.079 5966.23Z" stroke="#FFC88C" stroke-width="2"/>
<path d="M106.158 5966.23C106.158 5997.17 77.5596 6022.46 42.0003 6022.46C6.44098 6022.46 -22.1577 5997.17 -22.1577 5966.23C-22.1577 5935.29 6.44098 5910 42.0003 5910C77.5596 5910 106.158 5935.29 106.158 5966.23Z" stroke="#FFC88C" stroke-width="2"/>
<path d="M92.2369 5966.23C92.2369 5997.17 63.6382 6022.46 28.0789 6022.46C-7.48041 6022.46 -36.0791 5997.17 -36.0791 5966.23C-36.0791 5935.29 -7.48041 5910 28.0789 5910C63.6382 5910 92.2369 5935.29 92.2369 5966.23Z" stroke="#FFC88C" stroke-width="2"/>
<path d="M78.316 5966.23C78.316 5997.17 49.7173 6022.46 14.158 6022.46C-21.4013 6022.46 -50 5997.17 -50 5966.23C-50 5935.29 -21.4013 5910 14.158 5910C49.7173 5910 78.316 5935.29 78.316 5966.23Z" stroke="#FFC88C" stroke-width="2"/>
<path d="M95.3846 4621C125.302 4621 149.769 4648.66 149.769 4683.06C149.769 4717.45 125.302 4745.11 95.3846 4745.11C65.4667 4745.11 41 4717.45 41 4683.06C41 4648.66 65.4667 4621 95.3846 4621Z" stroke="#9EF3DF" stroke-width="2"/>
<path d="M95.3846 4634.47C125.302 4634.47 149.769 4662.13 149.769 4696.53C149.769 4730.93 125.302 4758.58 95.3846 4758.58C65.4667 4758.58 41 4730.93 41 4696.53C41 4662.13 65.4667 4634.47 95.3846 4634.47Z" stroke="#9EF3DF" stroke-width="2"/>
<path d="M95.3846 4647.94C125.302 4647.94 149.769 4675.6 149.769 4710C149.769 4744.4 125.302 4772.06 95.3846 4772.06C65.4667 4772.06 41 4744.4 41 4710C41 4675.6 65.4667 4647.94 95.3846 4647.94Z" stroke="#9EF3DF" stroke-width="2"/>
<path d="M95.3846 4661.42C125.302 4661.42 149.769 4689.07 149.769 4723.47C149.769 4757.87 125.302 4785.53 95.3846 4785.53C65.4667 4785.53 41 4757.87 41 4723.47C41 4689.07 65.4667 4661.42 95.3846 4661.42Z" stroke="#9EF3DF" stroke-width="2"/>
<path d="M95.3846 4674.89C125.302 4674.89 149.769 4702.55 149.769 4736.94C149.769 4771.34 125.302 4799 95.3846 4799C65.4667 4799 41 4771.34 41 4736.94C41 4702.55 65.4667 4674.89 95.3846 4674.89Z" stroke="#9EF3DF" stroke-width="2"/>
<path d="M1412.65 6153C1447.14 6153 1475.31 6184.87 1475.31 6224.47C1475.31 6264.07 1447.14 6295.94 1412.65 6295.94C1378.17 6295.94 1350 6264.07 1350 6224.47C1350 6184.87 1378.17 6153 1412.65 6153Z" stroke="#9EF3DF" stroke-width="2"/>
<path d="M1412.65 6168.48C1447.14 6168.48 1475.31 6200.36 1475.31 6239.95C1475.31 6279.55 1447.14 6311.42 1412.65 6311.42C1378.17 6311.42 1350 6279.55 1350 6239.95C1350 6200.36 1378.17 6168.48 1412.65 6168.48Z" stroke="#9EF3DF" stroke-width="2"/>
<path d="M1412.65 6183.97C1447.14 6183.97 1475.31 6215.84 1475.31 6255.44C1475.31 6295.04 1447.14 6326.91 1412.65 6326.91C1378.17 6326.91 1350 6295.04 1350 6255.44C1350 6215.84 1378.17 6183.97 1412.65 6183.97Z" stroke="#9EF3DF" stroke-width="2"/>
<path d="M1412.65 6199.45C1447.14 6199.45 1475.31 6231.32 1475.31 6270.92C1475.31 6310.52 1447.14 6342.39 1412.65 6342.39C1378.17 6342.39 1350 6310.52 1350 6270.92C1350 6231.32 1378.17 6199.45 1412.65 6199.45Z" stroke="#9EF3DF" stroke-width="2"/>
<path d="M1412.65 6214.93C1447.14 6214.93 1475.31 6246.81 1475.31 6286.4C1475.31 6326 1447.14 6357.88 1412.65 6357.88C1378.17 6357.88 1350 6326 1350 6286.4C1350 6246.81 1378.17 6214.93 1412.65 6214.93Z" stroke="#9EF3DF" stroke-width="2"/>
<path d="M228.5 2589C228.5 2620.36 199.509 2646 163.466 2646C127.423 2646 98.4321 2620.36 98.4321 2589C98.4321 2557.64 127.423 2532 163.466 2532C199.509 2532 228.5 2557.64 228.5 2589Z" stroke="#9EF3DF" stroke-width="2"/>
<path d="M214.392 2589C214.392 2620.36 185.401 2646 149.358 2646C113.315 2646 84.3242 2620.36 84.3242 2589C84.3242 2557.64 113.315 2532 149.358 2532C185.401 2532 214.392 2557.64 214.392 2589Z" stroke="#9EF3DF" stroke-width="2"/>
<path d="M200.284 2589C200.284 2620.36 171.293 2646 135.25 2646C99.2071 2646 70.2163 2620.36 70.2163 2589C70.2163 2557.64 99.2071 2532 135.25 2532C171.293 2532 200.284 2557.64 200.284 2589Z" stroke="#9EF3DF" stroke-width="2"/>
<path d="M186.176 2589C186.176 2620.36 157.185 2646 121.142 2646C85.0992 2646 56.1084 2620.36 56.1084 2589C56.1084 2557.64 85.0992 2532 121.142 2532C157.185 2532 186.176 2557.64 186.176 2589Z" stroke="#9EF3DF" stroke-width="2"/>
<path d="M172.068 2589C172.068 2620.36 143.077 2646 107.034 2646C70.9908 2646 42 2620.36 42 2589C42 2557.64 70.9908 2532 107.034 2532C143.077 2532 172.068 2557.64 172.068 2589Z" stroke="#9EF3DF" stroke-width="2"/>
<path d="M1448 2402.23C1448 2419.91 1431.63 2434.46 1411.17 2434.46C1390.7 2434.46 1374.33 2419.91 1374.33 2402.23C1374.33 2384.55 1390.7 2370 1411.17 2370C1431.63 2370 1448 2384.55 1448 2402.23Z" stroke="#FFC88C" stroke-width="2"/>
<path d="M1439.92 2402.23C1439.92 2419.91 1423.55 2434.46 1403.08 2434.46C1382.61 2434.46 1366.25 2419.91 1366.25 2402.23C1366.25 2384.55 1382.61 2370 1403.08 2370C1423.55 2370 1439.92 2384.55 1439.92 2402.23Z" stroke="#FFC88C" stroke-width="2"/>
<path d="M1431.83 2402.23C1431.83 2419.91 1415.47 2434.46 1395 2434.46C1374.53 2434.46 1358.17 2419.91 1358.17 2402.23C1358.17 2384.55 1374.53 2370 1395 2370C1415.47 2370 1431.83 2384.55 1431.83 2402.23Z" stroke="#FFC88C" stroke-width="2"/>
<path d="M1423.75 2402.23C1423.75 2419.91 1407.39 2434.46 1386.92 2434.46C1366.45 2434.46 1350.08 2419.91 1350.08 2402.23C1350.08 2384.55 1366.45 2370 1386.92 2370C1407.39 2370 1423.75 2384.55 1423.75 2402.23Z" stroke="#FFC88C" stroke-width="2"/>
<path d="M1415.67 2402.23C1415.67 2419.91 1399.3 2434.46 1378.83 2434.46C1358.37 2434.46 1342 2419.91 1342 2402.23C1342 2384.55 1358.37 2370 1378.83 2370C1399.3 2370 1415.67 2384.55 1415.67 2402.23Z" stroke="#FFC88C" stroke-width="2"/>
<path d="M235 859.231C235 876.913 218.635 891.462 198.166 891.462C177.698 891.462 161.333 876.913 161.333 859.231C161.333 841.548 177.698 827 198.166 827C218.635 827 235 841.548 235 859.231Z" stroke="#FFC88C" stroke-width="2"/>
<path d="M226.917 859.231C226.917 876.913 210.552 891.462 190.083 891.462C169.615 891.462 153.25 876.913 153.25 859.231C153.25 841.548 169.615 827 190.083 827C210.552 827 226.917 841.548 226.917 859.231Z" stroke="#FFC88C" stroke-width="2"/>
<path d="M218.833 859.231C218.833 876.913 202.468 891.462 182 891.462C161.531 891.462 145.166 876.913 145.166 859.231C145.166 841.548 161.531 827 182 827C202.468 827 218.833 841.548 218.833 859.231Z" stroke="#FFC88C" stroke-width="2"/>
<path d="M210.75 859.231C210.75 876.913 194.385 891.462 173.917 891.462C153.448 891.462 137.083 876.913 137.083 859.231C137.083 841.548 153.448 827 173.917 827C194.385 827 210.75 841.548 210.75 859.231Z" stroke="#FFC88C" stroke-width="2"/>
<path d="M202.667 859.231C202.667 876.913 186.302 891.462 165.834 891.462C145.365 891.462 129 876.913 129 859.231C129 841.548 145.365 827 165.834 827C186.302 827 202.667 841.548 202.667 859.231Z" stroke="#FFC88C" stroke-width="2"/>
<path d="M1471 3440.23C1471 3457.91 1454.63 3472.46 1434.17 3472.46C1413.7 3472.46 1397.33 3457.91 1397.33 3440.23C1397.33 3422.55 1413.7 3408 1434.17 3408C1454.63 3408 1471 3422.55 1471 3440.23Z" stroke="#FFC88C" stroke-width="2"/>
<path d="M1462.92 3440.23C1462.92 3457.91 1446.55 3472.46 1426.08 3472.46C1405.61 3472.46 1389.25 3457.91 1389.25 3440.23C1389.25 3422.55 1405.61 3408 1426.08 3408C1446.55 3408 1462.92 3422.55 1462.92 3440.23Z" stroke="#FFC88C" stroke-width="2"/>
<path d="M1454.83 3440.23C1454.83 3457.91 1438.47 3472.46 1418 3472.46C1397.53 3472.46 1381.17 3457.91 1381.17 3440.23C1381.17 3422.55 1397.53 3408 1418 3408C1438.47 3408 1454.83 3422.55 1454.83 3440.23Z" stroke="#FFC88C" stroke-width="2"/>
<path d="M1446.75 3440.23C1446.75 3457.91 1430.39 3472.46 1409.92 3472.46C1389.45 3472.46 1373.08 3457.91 1373.08 3440.23C1373.08 3422.55 1389.45 3408 1409.92 3408C1430.39 3408 1446.75 3422.55 1446.75 3440.23Z" stroke="#FFC88C" stroke-width="2"/>
<path d="M1438.67 3440.23C1438.67 3457.91 1422.3 3472.46 1401.83 3472.46C1381.37 3472.46 1365 3457.91 1365 3440.23C1365 3422.55 1381.37 3408 1401.83 3408C1422.3 3408 1438.67 3422.55 1438.67 3440.23Z" stroke="#FFC88C" stroke-width="2"/>
<path d="M1455.91 1628.6C1455.62 1667.67 1419.27 1699.29 1374.45 1698.94C1329.62 1698.6 1293.76 1666.44 1294.06 1627.37C1294.36 1588.3 1330.71 1556.68 1375.53 1557.03C1420.35 1557.37 1456.21 1589.53 1455.91 1628.6Z" stroke="#FFC88C" stroke-width="2"/>
<path d="M1438.41 1628.47C1438.11 1667.54 1401.76 1699.15 1356.94 1698.81C1312.12 1698.47 1276.26 1666.31 1276.56 1627.23C1276.85 1588.16 1313.2 1556.55 1358.02 1556.89C1402.84 1557.23 1438.71 1589.4 1438.41 1628.47Z" stroke="#FFC88C" stroke-width="2"/>
<path d="M1420.91 1628.33C1420.61 1667.41 1384.26 1699.02 1339.44 1698.68C1294.62 1698.34 1258.75 1666.17 1259.05 1627.1C1259.35 1588.03 1295.7 1556.42 1340.52 1556.76C1385.34 1557.1 1421.2 1589.26 1420.91 1628.33Z" stroke="#FFC88C" stroke-width="2"/>
<path d="M1403.4 1628.2C1403.1 1667.27 1366.75 1698.89 1321.93 1698.54C1277.11 1698.2 1241.25 1666.04 1241.55 1626.97C1241.85 1587.9 1278.2 1556.28 1323.02 1556.62C1367.84 1556.97 1403.7 1589.13 1403.4 1628.2Z" stroke="#FFC88C" stroke-width="2"/>
</g>
<defs>
<clipPath id="clip0_330_277">
<rect width="1440" height="6400" fill="white"/>
</clipPath>
</defs>
</svg>
