<svg width="23" height="23" viewBox="0 0 23 23" fill="none" xmlns="http://www.w3.org/2000/svg">
<path d="M20.6998 8.47905V16.6751C20.6998 17.4376 20.3969 18.1689 19.8577 18.708C19.3186 19.2472 18.5873 19.5501 17.8248 19.5501H5.1748C4.41231 19.5501 3.68104 19.2472 3.14187 18.708C2.60271 18.1689 2.2998 17.4376 2.2998 16.6751V8.47905L11.2077 13.7207C11.2962 13.7729 11.3971 13.8005 11.4998 13.8005C11.6025 13.8005 11.7034 13.7729 11.7919 13.7207L20.6998 8.47905ZM17.8248 4.6001C18.5322 4.59999 19.2148 4.8607 19.7421 5.33235C20.2693 5.804 20.6042 6.45349 20.6826 7.15655L11.4998 12.5581L2.31705 7.15655C2.39544 6.45349 2.73028 5.804 3.25752 5.33235C3.78476 4.8607 4.46739 4.59999 5.1748 4.6001H17.8248Z" fill="#FFC88C"/>
</svg>
