<svg width="135" height="393" viewBox="0 0 135 393" fill="none" xmlns="http://www.w3.org/2000/svg">
<path d="M2 39.7129V11.8516L22.5664 12.0273L22.5664 39.7129C22.5664 46.627 24.1191 52.457 27.2246 57.2031C30.3887 61.9492 34.9883 65.5234 41.0234 67.9258C47.0586 70.3867 54.3535 71.6172 62.9082 71.6172H69.1484C75.7109 71.6172 81.4824 70.9141 86.4629 69.5078C91.4434 68.1602 95.6328 66.1387 99.0313 63.4434C102.43 60.748 104.979 57.4375 106.678 53.5117C108.436 49.5859 109.314 45.0742 109.314 39.9766L109.314 11.3242L129.969 11.3242V39.9766C129.969 48.5312 128.504 56.3535 125.574 63.4434C122.703 70.5918 118.572 76.7734 113.182 81.9883C107.791 87.2031 101.346 91.2168 93.8457 94.0293C86.4043 96.9004 78.1133 98.3359 68.9727 98.3359H62.9082C53.8262 98.3359 45.5352 96.9004 38.0352 94.0293C30.5352 91.2168 24.0898 87.2031 18.6992 81.9883C13.3672 76.832 9.23633 70.6504 6.30664 63.4434C3.43555 56.2949 2 48.3848 2 39.7129ZM129.969 26.793L2 26.793V0.425781L129.969 0.425781V26.793ZM48.582 108.271H50.4277C57.4004 108.271 63.8164 109.267 69.6758 111.259C75.5938 113.252 80.7207 116.152 85.0566 119.961C89.3926 123.769 92.7617 128.457 95.1641 134.023C97.625 139.589 98.8555 145.976 98.8555 153.183C98.8555 160.39 97.625 166.806 95.1641 172.431C92.7617 178.056 89.3926 182.773 85.0566 186.582C80.7207 190.449 75.5938 193.379 69.6758 195.371C63.8164 197.363 57.4004 198.359 50.4277 198.359H48.582C41.668 198.359 35.252 197.363 29.334 195.371C23.4746 193.379 18.3477 190.449 13.9531 186.582C9.61719 182.773 6.24805 178.086 3.8457 172.519C1.44336 166.953 0.242188 160.566 0.242188 153.359C0.242188 146.152 1.44336 139.736 3.8457 134.111C6.24805 128.545 9.61719 123.828 13.9531 119.961C18.3477 116.152 23.4746 113.252 29.334 111.259C35.252 109.267 41.668 108.271 48.582 108.271ZM50.4277 133.584H48.582C44.5977 133.584 40.877 133.935 37.4199 134.638C33.9629 135.341 30.916 136.455 28.2793 137.978C25.7012 139.56 23.6797 141.611 22.2148 144.13C20.75 146.65 20.0176 149.726 20.0176 153.359C20.0176 156.875 20.75 159.892 22.2148 162.412C23.6797 164.931 25.7012 166.953 28.2793 168.476C30.916 170 33.9629 171.113 37.4199 171.816C40.877 172.578 44.5977 172.959 48.582 172.959H50.4277C54.2949 172.959 57.9277 172.578 61.3262 171.816C64.7832 171.113 67.8301 169.97 70.4668 168.388C73.1621 166.865 75.2715 164.843 76.7949 162.324C78.3184 159.804 79.0801 156.757 79.0801 153.183C79.0801 149.609 78.3184 146.562 76.7949 144.043C75.2715 141.582 73.1621 139.56 70.4668 137.978C67.8301 136.455 64.7832 135.341 61.3262 134.638C57.9277 133.935 54.2949 133.584 50.4277 133.584ZM76.3555 235.628H2V210.316L97.0977 210.316V234.134L76.3555 235.628ZM97.7129 264.28L74.2461 263.841C74.4219 262.611 74.5684 261.116 74.6855 259.359C74.8613 257.659 74.9492 256.107 74.9492 254.7C74.9492 251.126 74.4805 248.021 73.543 245.384C72.6641 242.806 71.3457 240.638 69.5879 238.88C67.8301 237.181 65.6914 235.892 63.1719 235.013C60.6523 234.193 57.7813 233.724 54.5586 233.607L56.1406 228.509C62.293 228.509 67.9473 229.124 73.1035 230.355C78.3184 231.585 82.8594 233.372 86.7266 235.716C90.5938 238.118 93.582 241.048 95.6914 244.505C97.8008 247.962 98.8555 251.917 98.8555 256.37C98.8555 257.777 98.7383 259.212 98.5039 260.677C98.3281 262.142 98.0645 263.343 97.7129 264.28ZM97.0977 299.352L2 299.352L2 273.952L97.0977 273.952V299.352ZM121.883 272.37C125.574 272.37 128.621 273.659 131.023 276.237C133.426 278.815 134.627 282.272 134.627 286.608C134.627 290.886 133.426 294.313 131.023 296.891C128.621 299.528 125.574 300.846 121.883 300.846C118.191 300.846 115.145 299.528 112.742 296.891C110.34 294.313 109.139 290.886 109.139 286.608C109.139 282.272 110.34 278.815 112.742 276.237C115.145 273.659 118.191 272.37 121.883 272.37ZM28.2793 368.086C30.0957 368.086 31.7363 367.559 33.2012 366.504C34.666 365.45 36.0137 363.487 37.2441 360.616C38.5332 357.803 39.7051 353.731 40.7598 348.399C41.8145 343.594 43.1328 339.112 44.7148 334.952C46.3555 330.85 48.3184 327.276 50.6035 324.229C52.8887 321.241 55.584 318.897 58.6895 317.198C61.8535 315.498 65.457 314.649 69.5 314.649C73.4844 314.649 77.2344 315.498 80.75 317.198C84.2656 318.955 87.3711 321.446 90.0664 324.668C92.8203 327.95 94.959 331.934 96.4824 336.621C98.0645 341.368 98.8555 346.7 98.8555 352.618C98.8555 360.879 97.5371 367.969 94.9004 373.887C92.2637 379.864 88.6309 384.434 84.002 387.598C79.4316 390.821 74.2168 392.432 68.3574 392.432L68.3574 367.12C70.8184 367.12 73.0156 366.592 74.9492 365.538C76.9414 364.541 78.4941 362.959 79.6074 360.791C80.7793 358.682 81.3652 355.928 81.3652 352.53C81.3652 349.717 80.8672 347.286 79.8711 345.235C78.9336 343.184 77.6445 341.602 76.0039 340.489C74.4219 339.434 72.6641 338.907 70.7305 338.907C69.2656 338.907 67.9473 339.2 66.7754 339.786C65.6621 340.43 64.6367 341.455 63.6992 342.862C62.7617 344.268 61.8828 346.084 61.0625 348.311C60.3008 350.596 59.5977 353.409 58.9531 356.748C57.5469 363.604 55.7012 369.727 53.416 375.118C51.1895 380.508 48.1426 384.786 44.2754 387.95C40.4668 391.114 35.457 392.696 29.2461 392.696C25.0273 392.696 21.1602 391.758 17.6445 389.883C14.1289 388.008 11.0527 385.313 8.41602 381.797C5.83789 378.282 3.81641 374.063 2.35156 369.141C0.945313 364.278 0.242188 358.799 0.242188 352.705C0.242188 343.858 1.82422 336.358 4.98828 330.205C8.15234 324.112 12.166 319.483 17.0293 316.319C21.9512 313.213 26.9902 311.661 32.1465 311.661L32.1465 335.655C28.6895 335.772 25.9063 336.651 23.7969 338.291C21.6875 339.991 20.1641 342.129 19.2266 344.707C18.2891 347.344 17.8203 350.186 17.8203 353.233C17.8203 356.514 18.2598 359.239 19.1387 361.407C20.0762 363.575 21.3066 365.215 22.8301 366.329C24.4121 367.5 26.2285 368.086 28.2793 368.086Z" fill="#9EF3DF"/>
</svg>
