<svg width="19" height="16" viewBox="0 0 19 16" fill="none" xmlns="http://www.w3.org/2000/svg">
<path d="M18.6998 4.47905V12.6751C18.6998 13.4376 18.3969 14.1689 17.8577 14.708C17.3186 15.2472 16.5873 15.5501 15.8248 15.5501H3.1748C2.41231 15.5501 1.68104 15.2472 1.14187 14.708C0.602706 14.1689 0.299805 13.4376 0.299805 12.6751V4.47905L9.2077 9.72075C9.2962 9.77294 9.39706 9.80047 9.4998 9.80047C9.60254 9.80047 9.70341 9.77294 9.7919 9.72075L18.6998 4.47905ZM15.8248 0.600098C16.5322 0.599986 17.2148 0.860695 17.7421 1.33235C18.2693 1.804 18.6042 2.45349 18.6826 3.15655L9.4998 8.5581L0.317055 3.15655C0.395437 2.45349 0.730277 1.804 1.25752 1.33235C1.78476 0.860695 2.46739 0.599986 3.1748 0.600098H15.8248Z" fill="#FFC88C"/>
</svg>
