<svg width="19" height="19" viewBox="0 0 19 19" fill="none" xmlns="http://www.w3.org/2000/svg">
<path fill-rule="evenodd" clip-rule="evenodd" d="M1.1875 3.5625C1.1875 2.93261 1.43772 2.32852 1.88312 1.88312C2.32852 1.43772 2.93261 1.1875 3.5625 1.1875H4.64867C5.3295 1.1875 5.92325 1.65142 6.08871 2.31167L6.9635 5.81321C7.03386 6.09664 7.01929 6.3945 6.92159 6.6697C6.8239 6.94491 6.6474 7.18529 6.41408 7.36092L5.39046 8.12883C5.28358 8.20879 5.26063 8.32596 5.29071 8.4075C5.73774 9.62246 6.44337 10.7258 7.35878 11.6412C8.2742 12.5566 9.37754 13.2623 10.5925 13.7093C10.674 13.7394 10.7904 13.7164 10.8712 13.6095L11.6391 12.5859C11.8147 12.3526 12.0551 12.1761 12.3303 12.0784C12.6055 11.9807 12.9034 11.9661 13.1868 12.0365L16.6883 12.9113C17.3486 13.0768 17.8125 13.6705 17.8125 14.3521V15.4375C17.8125 16.0674 17.5623 16.6715 17.1169 17.1169C16.6715 17.5623 16.0674 17.8125 15.4375 17.8125H13.6562C6.77033 17.8125 1.1875 12.2297 1.1875 5.34375V3.5625Z" fill="#FFC88C"/>
</svg>
