<svg width="32" height="32" viewBox="0 0 32 32" fill="none" xmlns="http://www.w3.org/2000/svg">
<circle cx="16" cy="16" r="16" fill="#D9D9D9"/>
<g clip-path="url(#clip0_260_269)">
<path d="M10.6936 12.1642C10.4602 11.5687 10.4696 10.8883 10.5732 10.2658C11.2864 10.4795 11.9563 10.8176 12.5518 11.2645C12.8132 11.4642 13.1557 11.5286 13.4749 11.4325C14.294 11.1874 15.1446 11.0641 15.9996 11.0666C16.8965 11.0666 17.7486 11.1973 18.5224 11.4315C18.8416 11.5286 19.1841 11.4633 19.4445 11.2635C20.0398 10.8167 20.7093 10.4787 21.4222 10.2649C21.5258 10.8874 21.5342 11.5678 21.3028 12.1623C21.1628 12.5207 21.2328 12.9333 21.4969 13.2263C22.1726 13.9758 22.5329 14.8373 22.5329 15.7333C22.5329 17.7063 20.6942 19.6411 17.7412 20.2301C17.002 20.3775 16.7136 21.3081 17.2792 21.841C17.6422 22.1826 17.8662 22.6642 17.8662 23.1999V25.9999C17.8662 26.2475 17.9646 26.4848 18.1396 26.6599C18.3146 26.8349 18.552 26.9333 18.7996 26.9333C19.0471 26.9333 19.2845 26.8349 19.4595 26.6599C19.6346 26.4848 19.7329 26.2475 19.7329 25.9999V23.1999C19.7329 22.6679 19.6209 22.162 19.4212 21.7038C22.237 20.7266 24.3996 18.5267 24.3996 15.7333C24.3996 14.4761 23.9478 13.3206 23.1984 12.3527C23.3944 11.5874 23.3766 10.8165 23.302 10.2247C23.2357 9.69458 23.1433 9.00018 22.77 8.58578C22.2146 7.97072 21.2953 8.33285 20.642 8.55592C19.9411 8.79307 19.2743 9.12097 18.6586 9.53125C17.7897 9.3095 16.8963 9.19818 15.9996 9.19992C15.0718 9.19992 14.1768 9.31658 13.3386 9.53218C12.7229 9.12189 12.0561 8.79399 11.3553 8.55685C10.702 8.33285 9.7817 7.97072 9.22636 8.58578C8.84556 9.00765 8.76623 9.64698 8.6981 10.1902L8.69343 10.2257C8.61876 10.8183 8.60196 11.5902 8.79796 12.3565C8.0513 13.3234 7.59956 14.477 7.59956 15.7333C7.59956 18.5258 9.7621 20.7266 12.578 21.7038C12.3741 22.1698 12.2681 22.6726 12.2662 23.1812L12.1094 23.213C11.4402 23.3054 11.0118 23.2223 10.7206 23.0991C10.0113 22.7986 9.64543 22.0417 9.1993 21.463C8.92116 21.1037 8.5161 20.6547 7.8945 20.4475C7.77818 20.4088 7.65537 20.3933 7.53309 20.4021C7.41081 20.4108 7.29144 20.4435 7.1818 20.4984C6.96039 20.6092 6.79205 20.8034 6.71383 21.0383C6.63561 21.2732 6.65391 21.5296 6.76471 21.751C6.8755 21.9724 7.06972 22.1408 7.30463 22.219C7.82543 22.3926 8.1857 23.2849 8.5161 23.6806C8.86423 24.0987 9.32716 24.5355 9.99076 24.8174C10.6273 25.0881 11.3749 25.1842 12.2662 25.075V25.9999C12.2662 26.2475 12.3646 26.4848 12.5396 26.6599C12.7146 26.8349 12.952 26.9333 13.1996 26.9333C13.4471 26.9333 13.6845 26.8349 13.8595 26.6599C14.0346 26.4848 14.1329 26.2475 14.1329 25.9999V23.1999C14.1329 22.6642 14.3569 22.1826 14.72 21.841C15.2865 21.3071 14.9972 20.3775 14.258 20.2301C11.304 19.6411 9.46623 17.7063 9.46623 15.7333C9.46623 14.8391 9.82556 13.9777 10.5004 13.2282C10.7645 12.9351 10.8336 12.5226 10.6936 12.1642Z" fill="#808080"/>
</g>
<defs>
<clipPath id="clip0_260_269">
<rect width="22.4" height="22.4" fill="white" transform="translate(4.7998 6.3999)"/>
</clipPath>
</defs>
</svg>
