<svg width="33" height="32" viewBox="0 0 33 32" fill="none" xmlns="http://www.w3.org/2000/svg">
<circle cx="16.7998" cy="16" r="16" fill="#D9D9D9"/>
<g clip-path="url(#clip0_164_179)">
<path d="M10.961 9.52964C10.9607 10.02 10.7624 10.4901 10.4095 10.8367C10.0567 11.1832 9.57834 11.3777 9.07963 11.3775C8.58093 11.3773 8.10274 11.1822 7.75028 10.8354C7.39782 10.4885 7.19995 10.0181 7.2002 9.52779C7.20044 9.03747 7.39879 8.56732 7.75161 8.22078C8.10443 7.87423 8.58281 7.67969 9.08151 7.67993C9.58022 7.68018 10.0584 7.87519 10.4109 8.22208C10.7633 8.56897 10.9612 9.03931 10.961 9.52964ZM11.0174 12.7465H7.25661V24.3199H11.0174V12.7465ZM16.9594 12.7465H13.2174V24.3199H16.9217V18.2467C16.9217 14.8634 21.4064 14.5491 21.4064 18.2467V24.3199H25.1202V16.9895C25.1202 11.286 18.4825 11.4986 16.9217 14.2995L16.9594 12.7465Z" fill="#808080"/>
</g>
<defs>
<clipPath id="clip0_164_179">
<rect width="19.2" height="19.2" fill="white" transform="translate(7.2002 6.3999)"/>
</clipPath>
</defs>
</svg>
