<svg width="33" height="32" viewBox="0 0 33 32" fill="none" xmlns="http://www.w3.org/2000/svg">
<circle cx="16.6001" cy="16" r="16" fill="#D9D9D9"/>
<g clip-path="url(#clip0_168_100)">
<path fill-rule="evenodd" clip-rule="evenodd" d="M9.4 10.5998H23.8C23.9591 10.5998 24.1117 10.663 24.2243 10.7755C24.3368 10.8881 24.4 11.0407 24.4 11.1998V11.8862L16.6 16.343L8.8 11.8862V11.1998C8.8 11.0407 8.86321 10.8881 8.97574 10.7755C9.08826 10.663 9.24087 10.5998 9.4 10.5998ZM8.8 13.9598V20.7998C8.8 20.9589 8.86321 21.1115 8.97574 21.2241C9.08826 21.3366 9.24087 21.3998 9.4 21.3998H23.8C23.9591 21.3998 24.1117 21.3366 24.2243 21.2241C24.3368 21.1115 24.4 20.9589 24.4 20.7998V13.9598L17.0464 18.1598L16.6 18.4166L16.1536 18.1598L8.8 13.9598ZM7 11.1998C7 10.5633 7.25286 9.95284 7.70294 9.50275C8.15303 9.05266 8.76348 8.7998 9.4 8.7998H23.8C24.4365 8.7998 25.047 9.05266 25.4971 9.50275C25.9471 9.95284 26.2 10.5633 26.2 11.1998V20.7998C26.2 21.4363 25.9471 22.0468 25.4971 22.4969C25.047 22.9469 24.4365 23.1998 23.8 23.1998H9.4C8.76348 23.1998 8.15303 22.9469 7.70294 22.4969C7.25286 22.0468 7 21.4363 7 20.7998V11.1998Z" fill="#808080"/>
</g>
<defs>
<clipPath id="clip0_168_100">
<rect width="19.2" height="19.2" fill="white" transform="translate(7 6.3999)"/>
</clipPath>
</defs>
</svg>
