<svg width="113" height="183" viewBox="0 0 113 183" fill="none" xmlns="http://www.w3.org/2000/svg">
<path d="M19.1387 69.0762H2L2 15.3896L19.1387 15.3896L19.1387 69.0762ZM108.641 22.4941L2 22.4941L2 0.521484L108.641 0.521484V22.4941ZM81.248 99.6211L2 99.6211L2 78.4541L81.248 78.4541V99.6211ZM101.902 77.1357C104.979 77.1357 107.518 78.21 109.52 80.3584C111.521 82.5068 112.522 85.3877 112.522 89.001C112.522 92.5654 111.521 95.4219 109.52 97.5703C107.518 99.7676 104.979 100.866 101.902 100.866C98.8262 100.866 96.2871 99.7676 94.2852 97.5703C92.2832 95.4219 91.2822 92.5654 91.2822 89.001C91.2822 85.3877 92.2832 82.5068 94.2852 80.3584C96.2871 78.21 98.8262 77.1357 101.902 77.1357ZM20.9697 160.928L81.248 160.928V182.021L2 182.021V162.173L20.9697 160.928ZM37.2295 163.271L37.376 169.497C32.1025 169.497 27.1953 168.887 22.6543 167.666C18.1621 166.445 14.2559 164.614 10.9355 162.173C7.66406 159.731 5.10059 156.655 3.24512 152.944C1.43848 149.233 0.535156 144.863 0.535156 139.834C0.535156 135.977 1.07227 132.412 2.14648 129.141C3.26953 125.918 5.00293 123.135 7.34668 120.791C9.73926 118.496 12.791 116.689 16.502 115.371C20.2617 114.102 24.7783 113.467 30.0518 113.467H81.248V134.561L29.9053 134.561C27.5615 134.561 25.584 134.829 23.9727 135.366C22.3613 135.952 21.043 136.758 20.0176 137.783C18.9922 138.809 18.2598 140.005 17.8203 141.372C17.3809 142.788 17.1611 144.351 17.1611 146.06C17.1611 150.405 18.04 153.823 19.7979 156.313C21.5557 158.853 23.9482 160.635 26.9756 161.66C30.0518 162.734 33.4697 163.271 37.2295 163.271Z" fill="#9EF3DF"/>
</svg>
