<svg width="618" height="213" viewBox="0 0 618 213" fill="none" xmlns="http://www.w3.org/2000/svg">
<g opacity="0.7">
<path d="M4.19922 147.207L4.19922 139.004H35.6445V144.18C35.5794 150.951 37.2721 155.964 40.7227 159.219C44.2383 162.474 49.1211 164.102 55.3711 164.102C61.3607 164.102 65.9505 162.637 69.1406 159.707C72.3958 156.712 74.0234 152.643 74.0234 147.5C74.0234 143.268 72.168 139.72 68.457 136.855C64.7461 133.991 57.8451 130.866 47.7539 127.48C33.0404 122.598 22.3958 116.543 15.8203 109.316C9.24479 102.09 5.95703 92.9102 5.95703 81.7773C5.95703 69.1471 10.3516 59.1862 19.1406 51.8945C27.9297 44.6029 39.681 40.957 54.3945 40.957C68.9128 40.957 80.6641 44.2448 89.6484 50.8203C98.6979 57.3958 103.223 66.8034 103.223 79.043V85.4883H72.2656V81.7773C72.2656 76.3086 70.7682 72.0768 67.7734 69.082C64.8438 66.0221 60.612 64.4922 55.0781 64.4922C49.0885 64.4922 44.7591 65.8268 42.0898 68.4961C39.4857 71.1654 38.1836 74.6159 38.1836 78.8477C38.1836 82.819 40.1693 86.1393 44.1406 88.8086C48.1771 91.4779 55.5339 94.5052 66.2109 97.8906C80.2734 102.253 90.4622 108.112 96.7773 115.469C103.092 122.76 106.25 132.363 106.25 144.277C106.25 157.559 101.595 168.008 92.2852 175.625C83.0404 183.177 70.8984 186.953 55.8594 186.953C40.8203 186.953 28.4505 183.6 18.75 176.895C9.04948 170.189 4.19922 160.293 4.19922 147.207ZM130.848 185L130.848 42.8125L165.516 42.8125L165.516 96.0352L203.504 42.8125H238.953L165.516 138.613L165.516 185H130.848ZM204.48 185L165.32 116.25L185.926 90.1758L243.25 185H204.48ZM259.547 185L259.547 42.8125H294.703L294.703 185H259.547ZM323.988 185L323.988 42.8125H358.656L358.656 157.363H411.293V185L323.988 185ZM433.645 185L433.645 42.8125H468.312L468.313 157.363H520.949V185H433.645ZM542.129 147.207V139.004L573.574 139.004V144.18C573.509 150.951 575.202 155.964 578.652 159.219C582.168 162.474 587.051 164.102 593.301 164.102C599.29 164.102 603.88 162.637 607.07 159.707C610.326 156.712 611.953 152.643 611.953 147.5C611.953 143.268 610.098 139.72 606.387 136.855C602.676 133.991 595.775 130.866 585.684 127.48C570.97 122.598 560.326 116.543 553.75 109.316C547.174 102.09 543.887 92.9102 543.887 81.7773C543.887 69.1471 548.281 59.1862 557.07 51.8945C565.859 44.6029 577.611 40.957 592.324 40.957C606.842 40.957 618.594 44.2448 627.578 50.8203C636.628 57.3958 641.152 66.8034 641.152 79.043V85.4883H610.195V81.7773C610.195 76.3086 608.698 72.0768 605.703 69.082C602.773 66.0221 598.542 64.4922 593.008 64.4922C587.018 64.4922 582.689 65.8268 580.02 68.4961C577.415 71.1654 576.113 74.6159 576.113 78.8477C576.113 82.819 578.099 86.1393 582.07 88.8086C586.107 91.4779 593.464 94.5052 604.141 97.8906C618.203 102.253 628.392 108.112 634.707 115.469C641.022 122.76 644.18 132.363 644.18 144.277C644.18 157.559 639.525 168.008 630.215 175.625C620.97 183.177 608.828 186.953 593.789 186.953C578.75 186.953 566.38 183.6 556.68 176.895C546.979 170.189 542.129 160.293 542.129 147.207Z" fill="#9EF3DF"/>
</g>
</svg>
