<svg width="173" height="485" viewBox="0 0 173 485" fill="none" xmlns="http://www.w3.org/2000/svg">
<g opacity="0.7">
<path d="M185 476.699L42.8125 476.699L42.8125 427.969L124.062 401.504C126.276 400.853 128.49 400.234 130.703 399.648C132.852 399.062 135.13 398.542 137.539 398.086V397.695C135.13 397.24 132.852 396.719 130.703 396.133C128.49 395.547 126.276 394.928 124.062 394.277L42.8125 368.008L42.8125 319.18L185 319.18V353.262L101.895 353.262C99.681 353.262 97.207 353.262 94.4727 353.262C91.7383 353.262 89.2643 353.164 87.0508 352.969V353.457C89.3945 353.913 91.901 354.466 94.5703 355.117C97.1745 355.768 99.6159 356.387 101.895 356.973L185 382.656V414.199L101.895 440.176C99.6159 440.762 96.9466 441.445 93.8867 442.227C90.8268 442.943 88.5482 443.366 87.0508 443.496V444.082C88.4831 444.017 90.7617 443.919 93.8867 443.789C97.0117 443.659 99.681 443.594 101.895 443.594L185 443.594V476.699ZM185 290.48L42.8125 290.48L42.8125 199.074H70.3516L70.3516 257.277H100.82L100.82 207.668L125.039 207.668L125.039 257.277H158.34V197.609H185V290.48Z" fill="#9EF3DF"/>
</g>
</svg>
