<svg width="172" height="1029" viewBox="0 0 172 1029" fill="none" xmlns="http://www.w3.org/2000/svg">
<g opacity="0.7">
<path d="M185 1020.7L42.8125 1020.7L42.8125 960.641C42.8125 946.253 47.3372 935.283 56.3867 927.73C65.3711 920.178 77.1549 916.402 91.7383 916.402C106.257 916.402 118.008 920.113 126.992 927.535C135.977 934.892 140.469 946.122 140.469 961.227V986.031H185V1020.7ZM117.031 986.031V969.527C117.031 962.691 114.655 957.906 109.902 955.172C105.15 952.438 99.3229 951.07 92.4219 951.07C85.5859 951.07 79.7917 952.438 75.0391 955.172C70.2865 957.906 67.9102 962.691 67.9102 969.527V986.031L117.031 986.031ZM185 893.27L42.8125 893.27L42.8125 835.359C42.8125 821.753 46.9466 811.01 55.2148 803.133C63.418 795.19 74.1927 791.219 87.5391 791.219C101.211 791.219 112.409 795.418 121.133 803.816C129.857 812.215 134.219 822.859 134.219 835.75V858.602L185 858.602V893.27ZM111.758 858.602V843.66C111.758 837.215 109.707 832.723 105.605 830.184C101.439 827.579 96.1003 826.277 89.5898 826.277C83.0794 826.277 77.7734 827.579 73.6719 830.184C69.5052 832.723 67.3893 837.215 67.3242 843.66V858.602H111.758ZM185 823.152L123.281 848.836L114.199 818.465L185 785.457V823.152ZM117.715 769.551H110.098C85.7487 769.551 68.138 764.115 57.2656 753.242C46.3281 742.305 40.8594 728.307 40.8594 711.25C40.8594 694.128 46.3281 680.13 57.2656 669.258C68.138 658.385 85.7487 652.949 110.098 652.949H117.715C142.064 652.949 159.707 658.385 170.645 669.258C181.517 680.13 186.953 694.128 186.953 711.25C186.953 728.307 181.517 742.305 170.645 753.242C159.707 764.115 142.064 769.551 117.715 769.551ZM127.969 733.418C140.859 733.418 150.007 731.465 155.41 727.559C160.749 723.652 163.418 718.216 163.418 711.25C163.418 704.349 160.749 698.945 155.41 695.039C150.007 691.133 140.859 689.18 127.969 689.18H100.039C87.2135 689.18 78.1641 691.133 72.8906 695.039C67.5521 698.945 64.8828 704.349 64.8828 711.25C64.8828 718.216 67.5521 723.652 72.8906 727.559C78.1641 731.465 87.2135 733.418 100.039 733.418H127.969ZM139.59 633.137H132.266V602.473H143.301C150.137 602.473 155.182 601.333 158.437 599.055C161.693 596.776 163.32 593.13 163.32 588.117C163.32 583.56 161.628 580.044 158.242 577.57C154.857 575.096 149.128 573.859 141.055 573.859H42.8125L42.8125 539.094H136.758C152.773 539.094 165.143 542.935 173.867 550.617C182.591 558.299 186.953 570.116 186.953 586.066C186.953 601.496 183.145 613.215 175.527 621.223C167.91 629.165 155.931 633.137 139.59 633.137ZM185 510.395L42.8125 510.395L42.8125 418.988H70.3516L70.3516 477.191H100.82L100.82 427.582L125.039 427.582L125.039 477.191H158.34V417.523H185V510.395ZM117.715 399.371H110.098C85.4232 399.371 67.7148 394 56.9727 383.258C46.2305 372.516 40.8594 358.518 40.8594 341.266C40.8594 324.729 44.7982 311.871 52.6758 302.691C60.5534 293.512 72.5651 288.922 88.7109 288.922H97.6953V321.637H85.4883C78.7826 321.637 73.6719 323.232 70.1562 326.422C66.5755 329.612 64.7852 334.332 64.7852 340.582C64.7852 347.548 67.6172 352.952 73.2812 356.793C78.8802 360.569 87.7669 362.457 99.9414 362.457L127.871 362.457C140.176 362.457 149.193 360.504 154.922 356.598C160.586 352.626 163.418 347.19 163.418 340.289C163.418 334.104 161.562 329.449 157.852 326.324C154.141 323.199 148.184 321.637 139.98 321.637H130.605V288.922H141.445C155.768 288.857 166.934 293.414 174.941 302.594C182.884 311.708 186.855 324.632 186.855 341.363C186.855 359.397 181.387 373.59 170.449 383.941C159.512 394.228 141.934 399.371 117.715 399.371ZM70.3516 272.039H42.8125L42.8125 162.664H70.3516V199.676L185 199.676V234.832L70.3516 234.832V272.039ZM147.207 145.684H139.004V114.238H144.18C150.951 114.303 155.964 112.611 159.219 109.16C162.474 105.645 164.102 100.762 164.102 94.5117C164.102 88.5221 162.637 83.9323 159.707 80.7422C156.712 77.487 152.643 75.8594 147.5 75.8594C143.268 75.8594 139.72 77.7148 136.855 81.4258C133.991 85.1367 130.866 92.0378 127.48 102.129C122.598 116.842 116.543 127.487 109.316 134.062C102.09 140.638 92.9102 143.926 81.7773 143.926C69.1471 143.926 59.1862 139.531 51.8945 130.742C44.6029 121.953 40.957 110.202 40.957 95.4883C40.957 80.9701 44.2448 69.2188 50.8203 60.2344C57.3958 51.1849 66.8034 46.6602 79.043 46.6602H85.4883V77.6172H81.7773C76.3086 77.6172 72.0768 79.1146 69.082 82.1094C66.0221 85.0391 64.4922 89.2708 64.4922 94.8047C64.4922 100.794 65.8268 105.124 68.4961 107.793C71.1654 110.397 74.6159 111.699 78.8477 111.699C82.819 111.699 86.1393 109.714 88.8086 105.742C91.4779 101.706 94.5052 94.349 97.8906 83.6719C102.253 69.6094 108.112 59.4206 115.469 53.1055C122.76 46.7904 132.363 43.6328 144.277 43.6328C157.559 43.6328 168.008 48.2878 175.625 57.5977C183.177 66.8424 186.953 78.9844 186.953 94.0234C186.953 109.062 183.6 121.432 176.895 131.133C170.189 140.833 160.293 145.684 147.207 145.684Z" fill="#9EF3DF"/>
</g>
</svg>
