<svg width="875" height="213" viewBox="0 0 875 213" fill="none" xmlns="http://www.w3.org/2000/svg">
<g opacity="0.7">
<path d="M-21.6289 117.715L-21.6289 110.098C-21.6289 85.4232 -16.2578 67.7148 -5.51562 56.9727C5.22656 46.2305 19.224 40.8594 36.4766 40.8594C53.013 40.8594 65.8711 44.7982 75.0508 52.6758C84.2305 60.5534 88.8203 72.5651 88.8203 88.7109V97.6953L56.1055 97.6953L56.1055 85.4883C56.1055 78.7826 54.5104 73.6719 51.3203 70.1562C48.1302 66.5755 43.4102 64.7852 37.1602 64.7852C30.194 64.7852 24.7904 67.6172 20.9492 73.2812C17.1732 78.8802 15.2852 87.7669 15.2852 99.9414L15.2852 127.871C15.2852 140.176 17.2383 149.193 21.1445 154.922C25.1159 160.586 30.5521 163.418 37.4531 163.418C43.638 163.418 48.293 161.562 51.418 157.852C54.543 154.141 56.1055 148.184 56.1055 139.98V130.605H88.8203V141.445C88.8854 155.768 84.3281 166.934 75.1484 174.941C66.0339 182.884 53.1107 186.855 36.3789 186.855C18.3451 186.855 4.15234 181.387 -6.19922 170.449C-16.4857 159.512 -21.6289 141.934 -21.6289 117.715ZM110.293 117.715V110.098C110.293 85.7487 115.729 68.138 126.602 57.2656C137.539 46.3281 151.536 40.8594 168.594 40.8594C185.716 40.8594 199.714 46.3281 210.586 57.2656C221.458 68.138 226.895 85.7487 226.895 110.098V117.715C226.895 142.064 221.458 159.707 210.586 170.645C199.714 181.517 185.716 186.953 168.594 186.953C151.536 186.953 137.539 181.517 126.602 170.645C115.729 159.707 110.293 142.064 110.293 117.715ZM146.426 127.969C146.426 140.859 148.379 150.007 152.285 155.41C156.191 160.749 161.628 163.418 168.594 163.418C175.495 163.418 180.898 160.749 184.805 155.41C188.711 150.007 190.664 140.859 190.664 127.969L190.664 100.039C190.664 87.2135 188.711 78.1641 184.805 72.8906C180.898 67.5521 175.495 64.8828 168.594 64.8828C161.628 64.8828 156.191 67.5521 152.285 72.8906C148.379 78.1641 146.426 87.2135 146.426 100.039L146.426 127.969ZM252.566 185L252.566 42.8125L287.332 42.8125L322.781 120.156C323.628 122.24 324.441 124.518 325.223 126.992C326.069 129.466 326.753 131.745 327.273 133.828H327.762C327.632 131.615 327.566 129.303 327.566 126.895C327.632 124.486 327.664 122.174 327.664 119.961L327.664 42.8125H357.059L357.059 185H323.367L286.648 106.68C285.802 104.727 284.988 102.611 284.207 100.332C283.426 98.0534 282.775 95.8724 282.254 93.7891H281.668C281.863 96.0026 281.961 98.151 281.961 100.234C281.961 102.253 281.961 104.401 281.961 106.68V185H252.566ZM378.141 70.3516L378.141 42.8125L487.516 42.8125V70.3516H450.504V185H415.348V70.3516L378.141 70.3516ZM488.676 185L533.012 42.8125L571.879 42.8125L615.141 185H581.254L554.398 89.0039C553.617 86.3346 552.966 84.0234 552.445 82.0703C551.99 80.0521 551.566 78.3594 551.176 76.9922H550.98C550.59 78.3594 550.134 80.0521 549.613 82.0703C549.092 84.0234 548.474 86.3346 547.758 89.0039L522.172 185L488.676 185ZM514.066 156.875L518.656 134.219H584.184L589.164 156.875H514.066ZM626.066 117.715V110.098C626.066 85.4232 631.438 67.7148 642.18 56.9727C652.922 46.2305 666.919 40.8594 684.172 40.8594C700.708 40.8594 713.566 44.7982 722.746 52.6758C731.926 60.5534 736.516 72.5651 736.516 88.7109V97.6953H703.801V85.4883C703.801 78.7826 702.206 73.6719 699.016 70.1562C695.826 66.5755 691.105 64.7852 684.855 64.7852C677.889 64.7852 672.486 67.6172 668.645 73.2812C664.868 78.8802 662.98 87.7669 662.98 99.9414V127.871C662.98 140.176 664.934 149.193 668.84 154.922C672.811 160.586 678.247 163.418 685.148 163.418C691.333 163.418 695.988 161.562 699.113 157.852C702.238 154.141 703.801 148.184 703.801 139.98L703.801 130.605H736.516L736.516 141.445C736.581 155.768 732.023 166.934 722.844 174.941C713.729 182.884 700.806 186.855 684.074 186.855C666.04 186.855 651.848 181.387 641.496 170.449C631.21 159.512 626.066 141.934 626.066 117.715ZM753.398 70.3516V42.8125L862.773 42.8125V70.3516H825.762L825.762 185H790.605L790.605 70.3516L753.398 70.3516Z" fill="#9EF3DF"/>
</g>
</svg>
