<svg width="55" height="45" viewBox="0 0 55 45" fill="none" xmlns="http://www.w3.org/2000/svg">
<g clip-path="url(#clip0_321_131)">
<path d="M45.221 14.5705C44.6356 14.386 44.0453 14.2151 43.4506 14.0579C43.5505 13.6829 43.6425 13.3125 43.7241 12.9485C45.0643 6.97201 44.1882 2.1572 41.1956 0.571939C38.3264 -0.947798 33.634 0.636874 28.895 4.42576C28.4279 4.79983 27.9712 5.18469 27.5254 5.57997C27.2269 5.31712 26.9231 5.05938 26.6142 4.80687C21.6474 0.75569 16.6691 -0.951745 13.6797 0.638058C10.8131 2.16253 9.96424 6.68878 11.1708 12.3529C11.2908 12.9138 11.4264 13.4719 11.5773 14.0265C10.8726 14.2105 10.1926 14.4063 9.54186 14.6147C3.71873 16.4798 0 19.4027 0 22.4344C0 25.5657 3.99223 28.7064 10.0573 30.6108C10.549 30.7646 11.0448 30.9071 11.5442 31.0381C11.382 31.6355 11.238 32.2369 11.1124 32.8417C9.96209 38.4075 10.8604 42.8267 13.7193 44.3416C16.6721 45.9059 21.6281 44.2981 26.4537 40.4228C26.845 40.1077 27.2277 39.7838 27.6014 39.4512C28.0843 39.8792 28.58 40.2947 29.0881 40.6973C33.7627 44.3925 38.3793 45.8846 41.2354 44.3656C44.1854 42.7967 45.1443 38.0492 43.8995 32.2733C43.8014 31.8208 43.6914 31.3705 43.5697 30.9229C43.9177 30.8281 44.2593 30.7306 44.5923 30.6292C50.8976 28.7102 55 25.6075 55 22.4344C55 19.3916 51.1612 16.449 45.221 14.5705ZM43.8535 28.5805C43.5527 28.6719 43.2442 28.7601 42.9296 28.846C42.2336 26.8215 41.2943 24.669 40.1446 22.4449C41.2416 20.2738 42.1448 18.1488 42.8214 16.1376C43.384 16.2872 43.93 16.4449 44.4563 16.6113C49.546 18.221 52.6505 20.6007 52.6505 22.4344C52.6505 24.3876 49.2976 26.9232 43.8535 28.5805ZM41.5946 32.6925C42.145 35.2464 42.2235 37.5556 41.8589 39.361C41.5314 40.9831 40.8727 42.0645 40.058 42.4977C38.3249 43.4194 34.6182 42.2214 30.6206 39.0612C30.148 38.6868 29.6869 38.3005 29.2377 37.9026C30.7875 36.3456 32.3363 34.5355 33.848 32.5251C36.5069 32.3084 39.0188 31.9539 41.2968 31.4702C41.4066 31.8754 41.5059 32.2829 41.5946 32.6925ZM18.7507 42.3385C17.0573 42.8877 15.7085 42.9035 14.8932 42.4717C13.1583 41.5525 12.4371 38.0041 13.4209 33.2443C13.5378 32.6819 13.6717 32.1225 13.8224 31.5669C16.0753 32.0248 18.5689 32.354 21.2341 32.5525C22.756 34.5197 24.3495 36.3278 25.9555 37.9111C25.6142 38.2145 25.2648 38.5101 24.9077 38.7977C22.7737 40.5112 20.6353 41.727 18.7507 42.3385ZM10.8174 28.5685C8.13549 27.7263 5.92066 26.6319 4.40258 25.4376C3.03832 24.3645 2.34975 23.2989 2.34975 22.4344C2.34975 20.5946 5.33543 18.2479 10.3153 16.6529C10.9196 16.4595 11.5521 16.2769 12.2085 16.1056C12.8969 18.1622 13.7996 20.3125 14.8891 22.4869C13.7854 24.6935 12.8698 26.8782 12.1748 28.959C11.7189 28.8391 11.2663 28.7088 10.8174 28.5685ZM13.4767 11.9382C12.4431 7.08549 13.1295 3.4249 14.8571 2.50615C16.697 1.5276 20.7657 2.92279 25.0542 6.42095C25.3339 6.64958 25.609 6.88284 25.8794 7.12062C24.2814 8.69701 22.7025 10.4917 21.1941 12.4472C18.6074 12.6675 16.1313 13.0212 13.8548 13.495C13.7146 12.9792 13.5885 12.4599 13.4767 11.9382ZM37.2013 17.3202C36.6636 16.467 36.1059 15.6245 35.5287 14.7933C37.2836 14.9972 38.9649 15.2678 40.5438 15.5986C40.0699 16.9944 39.479 18.4535 38.7836 19.9496C38.2753 19.0635 37.7477 18.1869 37.2013 17.3202ZM27.5264 8.66345C28.6101 9.74207 29.6955 10.9462 30.763 12.2528C28.5974 12.1588 26.4282 12.1584 24.2625 12.2516C25.3312 10.9571 26.4258 9.75451 27.5264 8.66345ZM17.7895 17.3348C17.2499 18.1945 16.7322 19.0657 16.2368 19.9476C15.5528 18.4569 14.9673 16.991 14.4893 15.5755C16.0585 15.253 17.7319 14.9893 19.4756 14.7892C18.8919 15.6254 18.3298 16.4743 17.7895 17.3348ZM19.5256 30.2333C17.7242 30.0485 16.0256 29.7985 14.4568 29.4846C14.9424 28.0439 15.5407 26.5468 16.2396 25.0241C16.7369 25.9067 17.2568 26.7784 17.7987 27.6385C18.356 28.5227 18.9331 29.3887 19.5256 30.2333ZM27.5913 36.3576C26.4776 35.2539 25.3668 34.0328 24.2821 32.7195C25.3352 32.7574 26.4088 32.7767 27.5 32.7767C28.6211 32.7767 29.7292 32.7537 30.82 32.709C29.749 34.046 28.6677 35.2689 27.5913 36.3576ZM38.8057 24.9463C39.5409 26.4858 40.1605 27.975 40.6525 29.3911C39.0579 29.7254 37.3362 29.9946 35.5221 30.1946C36.1034 29.348 36.6663 28.4908 37.2105 27.6237C37.7638 26.7422 38.2957 25.8495 38.8057 24.9463ZM35.1753 26.5452C34.3422 27.8748 33.4622 29.1791 32.5368 30.4561C30.8605 30.5652 29.1805 30.6193 27.5 30.6185C25.7883 30.6185 24.1235 30.5696 22.5204 30.474C21.5708 29.2 20.674 27.8934 19.832 26.5571C18.9939 25.2278 18.2114 23.8698 17.4855 22.486C18.2095 21.1018 18.9899 19.7431 19.8251 18.4129L19.8249 18.4131C20.6598 17.0824 21.5494 15.7814 22.4918 14.5129C24.1274 14.3992 25.8047 14.34 27.4998 14.34C29.2026 14.34 30.8823 14.3998 32.5175 14.5142C33.4503 15.7809 34.3342 17.0775 35.1676 18.4014C36.0055 19.7288 36.7963 21.0808 37.5386 22.4554C36.8039 23.844 36.0157 25.2081 35.1753 26.5452ZM40.0222 2.44181C41.8638 3.4176 42.5801 7.35253 41.4229 12.5127C41.349 12.8419 41.2661 13.1773 41.1759 13.5173C38.8938 13.0334 36.416 12.6736 33.8218 12.45C32.3106 10.4729 30.7446 8.67549 29.1726 7.11944C29.5846 6.75461 30.0063 6.39923 30.4376 6.05365C34.4981 2.80753 38.2931 1.52582 40.0222 2.44181ZM27.5 17.9226C30.2124 17.9226 32.4113 19.9427 32.4113 22.4344C32.4113 24.9262 30.2124 26.9463 27.5 26.9463C24.7876 26.9463 22.5887 24.9262 22.5887 22.4344C22.5887 19.9427 24.7876 17.9226 27.5 17.9226Z" fill="#00D8FF"/>
</g>
<defs>
<clipPath id="clip0_321_131">
<rect width="55" height="45" fill="white"/>
</clipPath>
</defs>
</svg>
