<svg width="45" height="45" viewBox="0 0 45 45" fill="none" xmlns="http://www.w3.org/2000/svg">
<path d="M37.8014 15.7936C37.7372 16.1817 37.5657 16.5441 37.3064 16.8399L37.1461 16.7372C37.2584 16.4931 37.3424 16.2369 37.3964 15.9736L37.3514 15.9033C37.2938 15.9033 37.2108 16.0636 37.1208 16.3716H37.0378C37.032 16.32 37.0168 16.27 36.9928 16.2239H36.9548C36.1969 18.3333 35.8566 19.3177 35.1563 20.9447C35.0283 21.3666 34.9186 21.593 34.823 21.638C34.8231 21.6481 34.8255 21.658 34.83 21.6671C34.8345 21.6761 34.841 21.684 34.849 21.6902C34.8569 21.6964 34.8662 21.7008 34.876 21.7029C34.8859 21.7051 34.8961 21.705 34.9059 21.7027C34.9214 21.9134 34.8723 22.1238 34.7653 22.306C34.6179 22.8442 34.3999 23.3606 34.117 23.8416L34.1873 24.2846C34.1897 24.2946 34.1896 24.305 34.1871 24.315C34.1845 24.325 34.1795 24.3342 34.1726 24.3418C34.1657 24.3494 34.157 24.3552 34.1473 24.3588C34.1376 24.3623 34.1272 24.3633 34.117 24.3619H34.0397C34.0266 24.24 33.9797 24.1824 33.8991 24.189H33.8611C33.7576 24.3557 33.6816 24.538 33.6361 24.7289H33.7134C33.7574 24.7072 33.7941 24.6732 33.819 24.631C33.844 24.5888 33.8562 24.5403 33.8541 24.4913L34.0088 24.4786L34.0917 24.511C34.0322 24.5861 33.9982 24.6782 33.9947 24.774L34.0327 24.8443L33.9356 25.0749V25.1129C34.0386 25.1086 34.1402 25.1377 34.2253 25.1958C34.3079 25.1833 34.3867 25.1526 34.4559 25.1058C34.5459 25.1058 34.8666 25.0932 35.4319 25.0932L35.7131 24.9961C36.0605 24.9961 36.1111 24.9961 36.4163 24.9764L36.5386 24.9638L36.6033 24.9188V24.9568C36.7961 24.9345 36.9912 24.943 37.1813 24.9821V25.02L37.0083 25.0327V25.103C37.059 25.0987 37.1076 25.0807 37.1489 25.051C37.1939 25.0491 37.2197 25.0725 37.2263 25.1213C37.1457 25.1317 37.0662 25.1491 36.9886 25.1733L36.9112 25.148C36.8557 25.1703 36.7976 25.1854 36.7383 25.193L36.6159 25.1677C36.6169 25.176 36.6149 25.1844 36.6103 25.1913C36.6056 25.1983 36.5987 25.2034 36.5906 25.2057C36.5906 25.2507 36.6159 25.276 36.6609 25.2704L36.8086 25.2577L36.7439 25.2324C36.7439 25.253 36.7566 25.2638 36.7819 25.2647L37.4175 25.2071L37.6875 25.1719C37.6873 25.1762 37.688 25.1805 37.6896 25.1845C37.6911 25.1885 37.6935 25.1922 37.6965 25.1952C37.6996 25.1983 37.7032 25.2007 37.7072 25.2022C37.7112 25.2038 37.7155 25.2045 37.7198 25.2043L37.8352 25.1593L38.0531 25.1396C38.2261 25.1269 38.2205 25.1143 38.5861 25.0566C38.5861 25.0369 38.5861 25.0243 38.6114 25.0243V25.0566C38.8781 25.0358 39.1412 24.9819 39.3947 24.8963L39.3623 24.819C39.2653 24.8401 39.1663 24.851 39.067 24.8513L38.5341 24.8766V24.8386L38.8294 24.8007H38.9391L38.9967 24.7557V24.7936C39.8448 24.7844 40.6884 24.6701 41.5083 24.4533C41.6109 24.4533 41.6053 24.3563 41.6686 24.1721C41.6326 24.1739 41.5969 24.1651 41.5659 24.1468C41.3849 24.1927 41.1998 24.2205 41.0133 24.2297C40.988 24.2316 40.9688 24.2082 40.9556 24.1594V24.1271L41.2509 24.1397C41.3645 24.132 41.4746 24.0968 41.5716 24.0371C41.6039 24.0568 41.5463 24.075 41.5716 24.0694H41.6236C41.6545 24.0694 41.6695 24.0436 41.6686 23.9921L41.6363 23.9218C41.4773 23.9228 41.321 23.9624 41.1806 24.0371V23.9991L40.9359 24.0244C40.9359 23.9471 40.9106 23.9147 40.8783 23.9147L40.7503 23.9274C40.6027 23.94 40.5323 23.9274 40.4606 23.9921C40.4606 23.9668 40.448 23.9541 40.4353 23.9541L40.2947 23.9668L40.2117 24.0118C40.2117 23.9865 40.1991 23.9738 40.1864 23.9738L40.1344 24.0188V23.9808L39.9375 23.9625H39.8925V24.0329L39.9952 24.0582H40.0852C40.1188 24.0764 40.1567 24.0851 40.1948 24.0835L40.2778 24.0455V24.0779C40.0239 24.1414 39.7666 24.1907 39.5072 24.2255C39.4853 24.2071 39.4583 24.1958 39.4298 24.1932C39.3975 24.2255 39.4678 24.1932 39.4495 24.1932C39.4397 24.1955 39.4295 24.1956 39.4196 24.1934C39.4098 24.1912 39.4005 24.1869 39.3926 24.1807C39.3846 24.1745 39.3781 24.1666 39.3736 24.1575C39.3691 24.1485 39.3667 24.1386 39.3666 24.1285L39.5269 24.1088L39.6366 24.1411C39.7645 24.0764 39.7772 24.0511 39.8419 24.0441V23.9738C39.5667 24.0273 39.2869 24.0532 39.0066 24.0511H38.9813V23.9808C39.7069 23.8908 39.4636 23.9429 39.7069 23.8711C39.7069 23.8965 39.7195 23.9091 39.7322 23.9091C39.7453 23.895 39.7612 23.8837 39.7788 23.8759C39.7965 23.8682 39.8156 23.8642 39.8348 23.8641H39.8869C40.1723 23.8754 40.4576 23.8383 40.7306 23.7544V23.7868L40.8136 23.7488H40.8909C40.8909 23.6715 41.0006 23.6658 41.0316 23.6588V23.5814C40.1513 23.7614 39.9206 23.7094 39.6759 23.7811V23.7488C39.5793 23.7721 39.4798 23.7806 39.3806 23.7741C39.3532 23.7816 39.3287 23.7973 39.3103 23.8191C39.3094 23.7938 39.2986 23.7811 39.278 23.7811C39.247 23.7811 39.2583 23.7938 39.2259 23.8261L39.278 23.7811L38.5144 23.9035C38.5146 23.8992 38.5139 23.8949 38.5123 23.8909C38.5108 23.8869 38.5084 23.8832 38.5053 23.8802C38.5023 23.8771 38.4987 23.8747 38.4946 23.8732C38.4906 23.8716 38.4863 23.8709 38.482 23.8711C38.2207 23.949 37.9513 23.9962 37.6791 24.0118C37.6437 24.0147 37.61 24.0279 37.582 24.0497C37.582 24.0291 37.5694 24.0183 37.5441 24.0174L37.2234 24.0427L37.0111 24.0947C37.0111 24.0741 36.9984 24.0633 36.9731 24.0624C36.8723 24.0904 36.7693 24.1097 36.6652 24.12C36.6131 24.12 36.6905 24.1074 36.6525 24.0877L36.5625 24.1229H36.1969C35.6344 24.1932 35.6963 24.2002 35.6344 24.2058L35.422 24.1932C35.422 24.2129 35.422 24.2255 35.3897 24.2311C35.1525 24.1993 35.0306 24.1608 35.0241 24.1158C35.0564 23.8908 35.107 23.7755 35.1914 23.7629H35.2294L35.1914 23.8402H35.2294C35.3067 23.8022 35.3391 23.7629 35.3391 23.7249V23.6475H35.2617V23.5772C35.2549 23.5271 35.2617 23.4761 35.2814 23.4296L35.4544 23.1483V23.2186H35.5373V23.1483L35.4923 23.078C35.5319 23.0358 35.5834 23.0069 35.64 22.995V22.9571H35.5303V22.8474C35.6712 22.5946 35.7789 22.3247 35.8509 22.0444L35.9283 22.0768C35.9803 22.0768 36.0056 22.0444 35.9986 21.9938H35.9213V21.9657C35.9149 21.9127 35.9236 21.8591 35.9466 21.811C36.0007 21.7631 36.0432 21.7035 36.071 21.6367C36.0987 21.57 36.111 21.4978 36.1069 21.4257C36.112 21.425 36.1173 21.4255 36.1222 21.4271C36.1271 21.4288 36.1316 21.4316 36.1353 21.4352C36.1389 21.4389 36.1417 21.4434 36.1434 21.4483C36.145 21.4532 36.1455 21.4585 36.1448 21.4636C36.247 21.4074 36.3263 21.2513 36.3825 20.9954C36.6836 20.3606 36.941 19.7062 37.1531 19.0364C37.4703 18.2911 37.706 17.5136 37.8563 16.7175H37.7789C37.7844 16.769 37.773 16.8208 37.7466 16.8652C37.7076 16.8483 37.6664 16.8374 37.6242 16.8329V16.8005C37.6268 16.6041 37.6946 16.4142 37.8169 16.2605H37.8281L37.8928 16.5108H37.9702C37.9702 16.4911 37.9898 16.3955 38.0278 16.2085C38.0269 16.171 37.9969 16.1494 37.9378 16.1438L37.8675 16.1888V15.7782L37.7972 15.7908L37.8014 15.7936ZM36.8761 16.9046H36.9141C36.8564 17.0072 36.8114 17.0649 36.7664 17.0719V16.9622C36.8068 16.9514 36.8443 16.9317 36.8761 16.9046ZM36.5555 17.6752C36.6342 17.3602 36.7092 17.1802 36.7805 17.1352V17.1732C36.7425 17.4685 36.6778 17.6161 36.5878 17.6288L36.6005 17.8144C36.542 17.8775 36.5077 17.9591 36.5034 18.045H36.4655L36.4458 17.7877C36.4838 17.7877 36.5231 17.7427 36.5484 17.6654L36.5555 17.6752ZM36.4331 18.0971C36.4218 18.2016 36.3938 18.3037 36.3502 18.3994H36.3122V18.2897C36.3488 18.1632 36.3938 18.0985 36.4331 18.0929V18.0971ZM34.3238 22.7658L34.3617 22.8361C34.4198 22.8296 34.4456 22.8038 34.4391 22.7588V22.7208H34.4011L34.3308 22.7588L34.3238 22.7658ZM35.3391 23.6096V23.6419C35.3967 23.6419 35.4544 23.5322 35.5064 23.334L35.4291 23.3086C35.3878 23.4057 35.3576 23.5071 35.3391 23.611V23.6096ZM41.8388 23.8346V23.8669L41.7741 23.9443L41.8964 23.8993H41.9062V23.8289H41.8809L41.8359 23.8669C41.8359 23.8472 41.9766 23.8093 41.8683 23.7896C41.8402 23.8149 41.8922 23.8205 41.8345 23.8275L41.8388 23.8346ZM42.0891 24.0652L42.262 24.0525C42.262 24.0075 42.1467 23.9949 42.1073 23.9949H42.082V24.0652H42.0891ZM39.0192 24.1299L39.0713 24.1946C39.0713 24.1749 39.0713 24.1622 39.0966 24.1622L39.1345 24.2325L38.9742 24.2129C38.9531 24.1552 38.9756 24.1299 39.015 24.1229L39.0192 24.1299ZM38.4933 24.1875C38.5053 24.1852 38.5177 24.1856 38.5296 24.1888C38.5415 24.1919 38.5525 24.1977 38.5618 24.2056C38.5711 24.2136 38.5785 24.2236 38.5835 24.2348C38.5884 24.246 38.5907 24.2583 38.5903 24.2705H38.4047V24.2382C38.4359 24.228 38.4643 24.2106 38.4877 24.1875H38.4933ZM38.9039 24.1679V24.2058L38.7563 24.2185V24.1805L38.9039 24.1679ZM37.4133 24.3225C37.4133 24.3432 37.4259 24.354 37.4513 24.3549C37.6889 24.3099 37.6636 24.3029 37.7789 24.2902C37.8164 24.2893 37.838 24.3108 37.8436 24.3549L37.1827 24.4125L37.2473 24.4449V24.4069L36.997 24.4266V24.3886L37.222 24.369L37.4273 24.324L37.4133 24.3225ZM38.0939 24.2649V24.2972C38.0742 24.2972 38.1586 24.2972 38.1192 24.3352C38.0365 24.3212 37.9528 24.3146 37.8689 24.3155V24.2832L38.0939 24.2649ZM38.2613 24.2452V24.2775L38.1389 24.2902V24.2579L38.2613 24.2452ZM34.1508 24.9005V25.0102C34.1128 25.0102 34.0805 24.9905 34.0678 24.9399V24.9075H34.1452L34.1508 24.9005ZM39.6478 24.8035V24.8738L39.7758 24.8611L39.7237 24.8288V24.8668L39.8517 24.8147C40.732 24.7177 40.8361 24.7571 40.822 24.6544V24.6221C40.434 24.7266 40.0354 24.7869 39.6338 24.8021L39.6478 24.8035ZM41.0217 24.6811L41.1497 24.7065V24.6361L41.0217 24.6108V24.6811ZM37.2248 24.9315C37.2628 24.9511 37.1798 24.9694 37.2248 24.9638L37.6748 24.9258V24.9638C37.5921 24.9633 37.5105 24.9831 37.4372 25.0214C37.4379 25.0163 37.4374 25.0111 37.4357 25.0061C37.4341 25.0012 37.4313 24.9967 37.4276 24.9931C37.4239 24.9894 37.4195 24.9866 37.4145 24.9849C37.4096 24.9833 37.4044 24.9828 37.3992 24.9835L37.2066 25.0032V24.9652C37.2586 24.9652 37.1812 24.9652 37.2192 24.9329L37.2248 24.9315ZM39.3061 24.8794L39.3441 24.9497C39.4917 24.9174 39.4088 24.9244 39.4467 24.8921C39.4467 24.9174 39.4594 24.93 39.472 24.93H39.5747V24.8527H39.3047V24.8907L39.3061 24.8794ZM36.7622 25.1607H36.7369V25.0904H36.7622V25.1607ZM34.7527 25.4054V25.4433L35.9339 25.3463V25.276L34.9903 25.3533L34.7822 25.3125L34.7527 25.4054ZM36.0689 25.335H36.0816V25.2647H36.0689V25.335ZM18.0773 19.125C17.6041 19.6422 17.1703 20.1941 16.7794 20.776C16.4391 21.129 16.2717 21.3385 16.2914 21.4116C16.2014 21.4679 16.163 21.5279 16.1761 21.5916C16.1705 21.5935 16.1646 21.5942 16.1588 21.5936C16.153 21.5929 16.1473 21.591 16.1424 21.5879C16.1374 21.5848 16.1331 21.5806 16.13 21.5756C16.1268 21.5707 16.1248 21.5651 16.1241 21.5593C16.0535 21.676 15.9594 21.7768 15.8478 21.8552C15.7362 21.9336 15.6095 21.988 15.4758 22.0149L15.1734 22.0852C15.1355 22.0852 15.1158 22.1232 15.1158 22.1752V22.2132L15.2311 22.1879V22.2202L14.9737 22.3172L14.5181 22.4199L14.2805 22.4325C14.2481 22.4649 14.4661 22.4325 14.3831 22.4522L14.0878 22.5225C13.9078 22.5675 13.8066 22.5479 13.7925 22.4775H13.7602C13.7789 22.5488 13.7616 22.5915 13.7081 22.6055L13.7658 22.5929L13.7405 22.4832L13.2005 22.6111L13.2581 22.6365C13.2581 22.6111 13.2258 22.6041 13.1752 22.6168L13.1048 22.6744L13.0219 22.6547C12.9778 22.6834 12.9306 22.7069 12.8812 22.725L12.7983 22.7054C12.5733 22.8333 12.7406 22.8333 12.728 22.8333L12.7477 22.9036L12.8756 22.8713L13.0753 22.8586L13.0556 22.9416C12.323 23.1343 12.8559 23.0246 12.6577 23.0696H12.6197L12.6394 23.1399L12.7547 23.1146V23.1525C12.6622 23.1631 12.5738 23.1964 12.4973 23.2496V23.2116C12.2617 23.2896 12.0585 23.4434 11.9194 23.6489C11.9517 23.7896 11.5341 23.9639 13.4986 23.5083C13.6392 23.5083 13.7109 23.5083 13.7292 23.4957C13.7292 23.4704 13.7292 23.4577 13.7616 23.4507C13.9795 23.4254 13.8769 23.4633 14.0119 23.431L14.4337 23.334L14.3437 23.386C14.3437 23.3663 14.3438 23.3536 14.3691 23.348C14.4217 23.3609 14.4767 23.3609 14.5294 23.348L14.5547 23.4577L12.8953 26.1197L12.5156 26.5782L12.3356 27.1885H12.368L12.548 27.1111L12.4903 27.3488L12.51 27.4191L12.562 27.4838C12.5367 27.4838 12.5297 27.5035 12.5367 27.5288V27.5668L12.6141 27.5471C12.7228 27.4496 12.7697 27.3619 12.7547 27.2841C12.8328 27.3003 12.9126 27.3069 12.9923 27.3038V27.3418C12.922 27.3615 12.8836 27.4191 12.877 27.5147V27.5527H12.915C13.5253 26.8918 15.0089 24.6235 16.2028 23.0822C16.1644 22.9154 16.7873 22.6843 18.0717 22.3889H18.1097C18.1022 22.8909 18.0021 23.3872 17.8144 23.8529C17.7155 24.0997 17.6401 24.3554 17.5894 24.6164C17.4616 24.9428 17.3646 25.2803 17.2997 25.6247L16.875 27.1027C16.574 27.8843 16.348 28.6928 16.2 29.5172C16.2381 29.5142 16.2763 29.519 16.3125 29.5313L16.3772 29.4736C16.3781 29.4971 16.3955 29.5079 16.4292 29.506L16.4039 29.3963H16.6036C16.6627 29.3822 16.7119 29.3072 16.7512 29.1713C16.7512 28.9716 16.7836 28.8633 16.8736 28.838C16.9198 28.5881 16.9953 28.3446 17.0986 28.1124C17.1479 27.8303 17.2344 27.556 17.3559 27.2968C17.5275 26.6789 17.6536 26.3602 17.7342 26.3405L17.7539 26.4179L17.6316 26.7455C17.4669 27.5299 17.2436 28.3008 16.9636 29.0518L17.0283 29.333H17.0662C17.987 27.0706 18.7699 24.7545 19.4105 22.3974C19.4229 22.254 19.469 22.1156 19.545 21.9935C19.621 21.8713 19.7247 21.7688 19.8478 21.6943L19.7902 21.6366V21.6043C19.8863 21.5892 19.9735 21.5391 20.0348 21.4636C20.0283 21.4383 19.9256 21.3999 19.7269 21.3483L20.3302 18.7665C20.4936 18.0958 20.6157 17.4158 20.6958 16.7302V16.6922C20.5602 16.6041 20.4408 16.4933 20.3428 16.3646V16.1775H20.3105C19.9378 16.74 19.1925 17.7244 18.0942 19.1307L18.0773 19.125ZM18.9309 19.71C18.9399 19.9684 18.8894 20.2253 18.7833 20.461C18.7439 20.9222 18.5789 21.1875 18.2883 21.2569V21.2189L18.0309 21.316L17.9156 21.3413C17.8633 21.3568 17.8076 21.3568 17.7553 21.3413L17.73 21.2386C18.069 20.6992 18.4409 20.1811 18.8437 19.6875L18.9337 19.7002L18.9309 19.71ZM18.3403 21.316L18.4233 21.2963L18.443 21.3666C18.038 21.4875 17.813 21.5541 17.768 21.5663C17.7269 21.5792 17.6894 21.6013 17.6583 21.631C17.6583 21.6057 17.6006 21.6057 17.498 21.631C17.4792 21.5607 17.7605 21.458 18.3417 21.323L18.3403 21.316ZM14.3522 22.3946L14.4422 22.3749L14.4225 22.2975L14.3325 22.3172L14.3522 22.3946ZM15.5278 22.0866L15.5475 22.1569L15.3548 22.1696V22.1316L15.5348 22.0866H15.5278ZM13.2778 22.8249V22.8629L13.1555 22.8882V22.8502L13.2778 22.8249ZM13.0528 23.2932V23.3255L12.9052 23.3579L12.8855 23.2875H13.0458L13.0528 23.2932ZM13.4058 23.2158V23.2482L13.1358 23.3129V23.2805L13.4058 23.2158ZM13.8741 23.1385V23.1765L13.1709 23.3368L13.1513 23.2665C13.5619 23.1961 13.5169 23.2215 13.8698 23.1385H13.8741ZM17.4122 22.3158L17.4698 22.3805C17.4046 22.3918 17.3429 22.4183 17.2898 22.4579L17.2069 22.4452C17.0982 22.4887 16.9869 22.5253 16.8736 22.5549L16.7963 22.5746C16.7865 22.578 16.7761 22.5794 16.7658 22.5786C16.7554 22.5778 16.7454 22.5749 16.7363 22.57C16.7271 22.5651 16.7191 22.5583 16.7127 22.5502C16.7064 22.542 16.7018 22.5326 16.6992 22.5225L17.2322 22.4002L17.4122 22.3158ZM17.7905 22.2329L18.1687 22.1429V22.1808C18.0023 22.2128 17.8404 22.2648 17.6864 22.3355V22.2975C17.7273 22.2832 17.7644 22.2596 17.7947 22.2286L17.7905 22.2329ZM13.808 23.3114L13.988 23.2735L14.0077 23.3438C13.9303 23.3635 13.988 23.3635 13.8923 23.4085C13.7426 23.4118 13.5938 23.4335 13.4494 23.4732V23.4352L13.808 23.3114ZM14.2959 23.2285C14.348 23.2158 14.3789 23.2285 14.3859 23.2861L14.2763 23.3114C14.2313 23.3246 14.1989 23.3054 14.1792 23.2538L14.2945 23.2285H14.2959ZM12.292 27.2813V27.3193C12.3441 27.3066 12.3623 27.2813 12.3497 27.2293V27.1913C12.3396 27.1927 12.33 27.1962 12.3214 27.2017C12.3129 27.2072 12.3056 27.2145 12.3001 27.223C12.2946 27.2316 12.2911 27.2412 12.2897 27.2513C12.2883 27.2613 12.2891 27.2716 12.292 27.2813ZM12.4467 27.924C12.4479 27.934 12.4513 27.9436 12.4569 27.9521C12.4624 27.9605 12.4699 27.9676 12.4786 27.9726C12.4874 27.9777 12.4972 27.9806 12.5073 27.9812C12.5174 27.9818 12.5274 27.98 12.5367 27.976C12.5887 27.9633 12.607 27.938 12.5944 27.886V27.848L12.517 27.8677L12.4523 27.9254L12.4467 27.924ZM33.9539 16.8146L34.2436 16.733C34.3589 16.7461 34.4166 16.7696 34.4166 16.8033C34.5345 16.7614 34.6574 16.7354 34.7822 16.726V16.681L34.4869 16.6683L33.9089 16.7654L33.6586 16.7457C33.6586 16.7654 33.6839 16.7921 33.7345 16.8258L33.9539 16.8146ZM16.5445 29.025C16.5538 29.021 16.5639 29.0192 16.574 29.0198C16.5841 29.0204 16.5939 29.0233 16.6026 29.0284C16.6114 29.0335 16.6188 29.0405 16.6244 29.0489C16.6299 29.0574 16.6334 29.067 16.6345 29.0771V29.115L16.4869 29.1474C16.4948 29.1094 16.4948 29.0701 16.4869 29.0321H16.5319L16.5445 29.025ZM22.4916 17.1436C22.1258 17.4031 21.7465 17.643 21.3553 17.8622V17.9325C21.3972 17.9242 21.4366 17.9064 21.4706 17.8805C21.4804 17.8782 21.4907 17.8781 21.5005 17.8803C21.5104 17.8824 21.5196 17.8868 21.5276 17.893C21.5356 17.8992 21.542 17.9071 21.5465 17.9161C21.551 17.9252 21.5534 17.9351 21.5536 17.9452L21.6239 17.9072H21.6562V17.9396C21.4182 18.1756 21.1529 18.3823 20.8659 18.5555L20.9039 18.6329H20.8716L20.7886 18.6005C20.7886 18.6258 20.7562 18.6455 20.6789 18.6525V18.6849L20.7619 18.7875C20.7192 18.7862 20.6773 18.7751 20.6395 18.7552C20.5332 18.7774 20.4328 18.8221 20.3453 18.8864C20.2577 18.9507 20.1849 19.033 20.1319 19.1279L20.1698 19.1982C20.2435 19.1158 20.3305 19.0464 20.4272 18.9929V19.1025C20.3853 19.1109 20.3459 19.1287 20.3119 19.1546L20.4089 19.2952C20.5765 19.1077 20.7686 18.9436 20.9798 18.8072C21.0825 18.8396 21.1402 18.8719 21.1402 18.9043H21.2175C21.7334 18.5129 22.3076 18.2049 22.9191 17.9916V18.0619C22.8159 18.2147 22.7452 18.2939 22.7067 18.2996C22.7133 18.3487 22.7286 18.3963 22.7517 18.4402C22.5467 19.1001 22.2934 19.7441 21.9938 20.3668C21.1402 22.4673 20.1538 24.5115 19.0406 26.4868C19.0476 26.5274 19.0656 26.5653 19.0927 26.5965C19.2252 26.5755 19.352 26.5276 19.4653 26.4558H19.4977V26.5261H19.5806L19.6509 26.4882C19.6509 26.5079 19.6763 26.5205 19.7283 26.5135V26.5908C19.7167 26.7106 19.6746 26.8253 19.6059 26.9241C19.4833 27.0963 19.3941 27.2899 19.343 27.495V27.533H19.4203C19.7096 27.2171 19.9538 26.8626 20.1459 26.4797C20.8805 26.2806 21.5944 26.0117 22.2778 25.6768C22.6829 25.6638 23.0748 25.5296 23.4028 25.2915V25.2535L23.2102 25.3111H23.1722V25.2732C23.4389 25.2549 23.6969 25.1709 23.9231 25.0285C24.6262 24.4829 25.1616 24.0975 25.5291 23.8725C26.647 23.0499 27.173 22.2666 27.1083 21.5086C26.9069 21.167 26.6584 20.8555 26.37 20.5833C26.3634 20.4802 26.5303 20.3325 26.8706 20.1404L27.8466 19.2966C28.1038 18.8943 28.2378 18.4255 28.2319 17.948L28.2192 17.8074C28.1817 17.378 27.8672 17.0293 27.2756 16.7611C26.6904 16.47 26.0398 16.3348 25.387 16.3688C24.3777 16.4934 23.3914 16.7614 22.4578 17.1647L22.4916 17.1436ZM27.72 17.1957L27.682 17.273L26.6034 16.8174C27.3291 16.8497 27.7003 16.9721 27.72 17.1957ZM23.3438 20.205C23.4206 19.801 23.5041 19.5741 23.5941 19.5244L24.4097 17.6963C24.4097 17.5866 24.57 17.4966 24.923 17.4333L25.0383 17.4207V17.5304C25.3852 17.4722 25.6013 17.4399 25.6866 17.4333C26.3292 17.3757 26.6625 17.5107 26.6878 17.8186H26.7652L26.7525 17.6457H26.8298C26.9065 17.6778 26.9738 17.7288 27.0255 17.794C27.0771 17.8591 27.1114 17.9363 27.1252 18.0183C27.1173 18.1603 27.063 18.2957 26.9705 18.4036C26.9198 18.4046 26.8922 18.3704 26.8875 18.301H26.8102L26.7848 18.5189C26.4567 19.013 26.2223 19.2657 26.0817 19.2769C25.9533 19.4569 25.8698 19.5469 25.8314 19.5469C25.5798 19.7883 25.2992 19.9975 24.9961 20.1699C24.4161 20.3402 23.8515 20.5594 23.3086 20.8252C23.2599 20.8042 23.2063 20.7974 23.1539 20.8055V20.7352C23.1604 20.545 23.2252 20.3614 23.3395 20.2093L23.3438 20.205ZM27.8269 17.955V18.0324C27.7903 18.0324 27.7153 17.9166 27.6019 17.685V17.6147C27.6666 17.6105 27.7439 17.7258 27.8198 17.9579L27.8269 17.955ZM20.7112 18.8283V18.8663C20.6699 18.8725 20.6306 18.8879 20.5959 18.9113H20.5636V18.841L20.7112 18.8283ZM23.0625 18.7735V18.8832C23.0245 18.8832 22.9795 18.9408 22.9219 19.0379V18.9675C22.9722 18.9141 23.0059 18.8471 23.0189 18.7749L23.0625 18.7735ZM22.6969 19.5314L22.7095 19.6721H22.6716L22.6589 19.5314H22.6969ZM22.6069 19.7944C22.6003 19.9163 22.568 19.9805 22.5098 19.9871H22.4719C22.5094 19.9298 22.5295 19.8629 22.5295 19.7944H22.6069ZM22.4395 20.1727V20.2107L22.3748 20.326H22.2975V20.288C22.3748 20.288 22.4128 20.243 22.4072 20.1657L22.4395 20.1727ZM22.2792 20.513L22.2539 20.6986H22.2188L22.2061 20.513H22.2792ZM26.235 20.6536L26.3953 20.7507C26.3977 20.7607 26.3976 20.7711 26.395 20.7811C26.3925 20.7911 26.3875 20.8003 26.3806 20.8079C26.3737 20.8155 26.365 20.8213 26.3553 20.8248C26.3456 20.8284 26.3352 20.8294 26.325 20.828C26.2788 20.7927 26.2228 20.7725 26.1647 20.7704V20.6607H26.235V20.6536ZM23.1412 21.0643V21.1346L22.9866 21.1472V21.0769L23.1412 21.0643ZM25.6402 21.3272C25.7498 21.3793 25.8005 21.4243 25.8075 21.4679V21.5002C25.7495 21.5006 25.6924 21.4861 25.6416 21.458C25.5909 21.4299 25.5483 21.3892 25.5178 21.3399L25.6402 21.3272ZM22.4227 22.1175C23.1357 22.0016 23.8309 21.7946 24.4913 21.5016L24.7289 21.4819C24.9164 21.4503 25.1084 21.459 25.2922 21.5075C25.4761 21.556 25.6474 21.6431 25.7948 21.7632L25.8075 21.9038C25.6341 22.4044 25.4414 22.6997 25.2295 22.7897L24.2592 23.573C23.8842 23.842 23.4893 24.0822 23.078 24.2916C22.4063 24.7149 21.6807 25.046 20.9208 25.276H20.8828C20.9081 25.141 21.4237 24.0854 22.4297 22.1091L22.4227 22.1175ZM23.4689 21.6957V21.7336L23.3142 21.7463V21.7083L23.4689 21.6957ZM26.9691 21.5354L26.9944 21.8307C26.9564 21.901 26.9241 21.9404 26.8847 21.946L26.8397 21.4454C26.9222 21.4716 26.9644 21.5016 26.9663 21.5354H26.9691ZM21.0389 24.0469C20.9869 24.2916 20.9362 24.4196 20.8842 24.4196V24.3872C20.8785 24.322 20.8897 24.2564 20.9168 24.1967C20.9439 24.1371 20.986 24.0855 21.0389 24.0469ZM22.0092 25.4208C22.8294 25.1021 23.6115 24.6927 24.3408 24.2002V24.2705C24.3408 24.3029 24.2381 24.3985 24.0131 24.5518C23.6128 24.7299 23.2301 24.945 22.8698 25.1944C22.1686 25.44 21.8217 25.5919 21.8292 25.65C21.4101 25.8055 21.0006 25.9858 20.603 26.19C20.5322 26.1905 20.4629 26.1705 20.4033 26.1324C20.3979 26.0711 20.411 26.0095 20.4408 25.9557C20.4706 25.9018 20.5158 25.8581 20.5706 25.83C20.6754 25.8218 20.7806 25.8372 20.8786 25.875C21.0735 25.7911 21.2754 25.7243 21.4819 25.6754V25.605L21.2442 25.6247C21.4522 25.4918 21.6768 25.3868 21.9122 25.3125L22.0275 25.2999V25.3322C21.8297 25.351 21.7186 25.411 21.6942 25.5122C21.6944 25.5223 21.6968 25.5323 21.7013 25.5413C21.7058 25.5503 21.7122 25.5582 21.7202 25.5644C21.7282 25.5707 21.7374 25.575 21.7473 25.5772C21.7571 25.5793 21.7674 25.5792 21.7772 25.5769C21.9375 25.4996 22.0078 25.4363 22.0078 25.4222L22.0092 25.4208ZM20.8083 24.5405V24.5729C20.8111 24.5832 20.8113 24.594 20.809 24.6045C20.8066 24.6149 20.8018 24.6246 20.7949 24.6328C20.788 24.6409 20.7792 24.6473 20.7693 24.6513C20.7594 24.6553 20.7486 24.6569 20.738 24.6558V24.6179C20.738 24.5855 20.7633 24.5532 20.8153 24.5405H20.8083ZM22.6364 25.0411C22.4515 25.0863 22.2756 25.1623 22.1161 25.2661H22.0781V25.1958C22.2595 25.1822 22.4303 25.105 22.5605 24.9779C22.6125 24.9779 22.6378 24.9905 22.6434 25.0355L22.6364 25.0411ZM20.7478 25.5671L20.8631 25.5544V25.5924C20.8218 25.5986 20.7824 25.614 20.7478 25.6374H20.6705C20.6705 25.5994 20.6902 25.5727 20.7408 25.56L20.7478 25.5671ZM19.9702 25.9974L20.0475 26.0297C20.0222 26.2547 19.9505 26.37 19.8478 26.3771C19.7742 26.3401 19.6925 26.3222 19.6102 26.325V26.2154C19.6102 26.1774 19.6298 26.1507 19.6805 26.138C19.7311 26.1254 19.7578 26.1704 19.7634 26.2407C19.8229 26.1545 19.8917 26.0753 19.9687 26.0044L19.9702 25.9974ZM7.37156 16.8272C6.89311 17.1729 6.39337 17.488 5.87531 17.7708V17.8679C5.92773 17.8581 5.97784 17.8386 6.02297 17.8102C6.08766 17.8102 6.12562 17.8299 6.12562 17.8932L6.22828 17.8355H6.28031V17.8805C5.96496 18.1927 5.61376 18.4665 5.23406 18.6961L5.29172 18.7861H5.23969L5.13 18.7482C5.13 18.7805 5.085 18.8002 4.98234 18.8058V18.8579L5.09766 18.9858C5.04452 18.9849 4.99203 18.9739 4.94297 18.9535C4.8026 18.9832 4.67028 19.0427 4.55501 19.1281C4.43974 19.2136 4.34424 19.3228 4.275 19.4485L4.33266 19.5385C4.4298 19.4345 4.54218 19.3458 4.66594 19.2755L4.67859 19.4161C4.62617 19.4259 4.57607 19.4454 4.53094 19.4738L4.65328 19.6538C4.87771 19.4082 5.13461 19.1943 5.41688 19.0182C5.5575 19.0547 5.62828 19.0974 5.62922 19.1461H5.73188C6.40906 18.6293 7.16305 18.2217 7.96641 17.9382V18.0352C7.82766 18.2396 7.73391 18.3446 7.68516 18.3502C7.6935 18.4168 7.7176 18.4804 7.75547 18.5358C7.49043 19.4052 7.15559 20.2517 6.75422 21.0671C5.63283 23.8333 4.33985 26.5268 2.88281 29.1319C2.89336 29.1819 2.9129 29.2295 2.94047 29.2725C3.11572 29.2425 3.28369 29.1795 3.43547 29.0869H3.49313V29.184H3.59016L3.69844 29.1094C3.69844 29.1418 3.73641 29.1544 3.80109 29.1474V29.2444C3.78874 29.405 3.73067 29.5587 3.63375 29.6874C3.47503 29.9146 3.35966 30.1692 3.29344 30.4383V30.4833H3.39047C3.77051 30.0686 4.09222 29.604 4.34672 29.1024C5.31642 28.8411 6.25836 28.486 7.15922 28.0421C7.69387 28.0277 8.21141 27.8506 8.64281 27.5344V27.4824L8.39813 27.5527H8.34047V27.5007C8.68906 27.4718 9.0261 27.362 9.32484 27.18C10.2548 26.4629 10.958 25.9533 11.4342 25.6514C12.9052 24.5729 13.5984 23.5322 13.5155 22.5436C13.2497 22.0962 12.9232 21.6877 12.5452 21.33C12.5325 21.1894 12.7575 21.0024 13.2061 20.745L14.4844 19.62C14.8195 19.0898 14.9974 18.4754 14.9977 17.8482L14.978 17.6555C14.9259 17.0846 14.5153 16.6219 13.732 16.269C12.9633 15.8866 12.1066 15.7158 11.25 15.7739C9.91815 15.9522 8.61585 16.3064 7.37719 16.8272H7.37156ZM14.2622 16.9102L14.2242 17.0072L12.7969 16.4096C13.7475 16.448 14.2355 16.6149 14.2608 16.9102H14.2622ZM8.49656 20.866C8.59312 20.3391 8.70234 20.0396 8.82422 19.9674L9.89016 17.5768C9.87703 17.4286 10.1039 17.3152 10.5708 17.2364L10.7255 17.2238L10.7381 17.3644C11.1994 17.295 11.4839 17.2543 11.5917 17.2421C12.4355 17.1699 12.8766 17.341 12.915 17.7554H13.012L12.9923 17.5107H13.095C13.199 17.5525 13.2904 17.6206 13.3602 17.7084C13.4299 17.7961 13.4757 17.9005 13.493 18.0113C13.4863 18.1997 13.4084 18.3786 13.275 18.5119C13.2103 18.5119 13.1723 18.474 13.1653 18.3713H13.0627L13.0373 18.661C12.608 19.3032 12.2977 19.6313 12.1064 19.6454C11.933 19.8825 11.8238 20.0044 11.7788 20.011C11.4437 20.3274 11.0727 20.6035 10.6734 20.8336C9.91172 21.0574 9.17032 21.3453 8.45719 21.6943C8.39332 21.6638 8.322 21.6526 8.25188 21.6619V21.5719C8.25813 21.3168 8.34584 21.0704 8.50219 20.8688L8.49656 20.866ZM14.4028 17.9129V18.0029C14.3508 18.0029 14.2552 17.8552 14.1131 17.5472V17.4572C14.1919 17.4375 14.2889 17.5979 14.3916 17.9129H14.4028ZM5.02594 19.0561V19.1011C4.97352 19.1109 4.92342 19.1304 4.87828 19.1588H4.82625V19.0688L5.02594 19.0561ZM8.11687 18.9844L8.12953 19.125C8.08266 19.126 8.02078 19.1944 7.94391 19.3304V19.2333C8.01532 19.1663 8.06441 19.0789 8.08453 18.983L8.11687 18.9844ZM7.64156 19.9857L7.66125 20.1783H7.60922L7.59375 19.9871L7.64156 19.9857ZM7.51922 20.333C7.50656 20.4933 7.46719 20.5777 7.37859 20.5833H7.32656C7.37552 20.5106 7.40416 20.4261 7.40953 20.3386L7.51922 20.333ZM7.30688 20.8336V20.8786L7.21688 21.0333H7.11984V20.9883C7.14025 20.9912 7.16103 20.989 7.18041 20.982C7.19978 20.975 7.21715 20.9634 7.231 20.9481C7.24486 20.9329 7.25479 20.9145 7.25992 20.8945C7.26506 20.8746 7.26524 20.8537 7.26047 20.8336H7.3125H7.30688ZM7.08891 21.2836L7.06359 21.5213H7.01156L6.99188 21.2836H7.08891ZM12.292 21.4566L12.5044 21.5846C12.5074 21.5979 12.5073 21.6118 12.5041 21.6251C12.501 21.6384 12.4948 21.6508 12.4861 21.6614C12.4775 21.672 12.4665 21.6804 12.4541 21.6861C12.4416 21.6918 12.428 21.6946 12.4144 21.6943C12.3525 21.6476 12.2791 21.6189 12.202 21.6113L12.1894 21.4707L12.292 21.4566ZM8.21391 22.0022V22.0922L8.01422 22.1119V22.0219L8.21391 22.0022ZM11.5017 22.3355C11.6423 22.4011 11.715 22.4611 11.7197 22.5155V22.5605C11.6443 22.5617 11.5699 22.5426 11.5044 22.5052C11.4388 22.4679 11.3845 22.4136 11.347 22.3482L11.5017 22.3355ZM7.26328 23.3761C8.20369 23.2233 9.12088 22.9516 9.99281 22.5675L10.2952 22.5422C10.5417 22.4977 10.7949 22.5068 11.0375 22.5689C11.2802 22.6311 11.5066 22.7447 11.7014 22.9022L11.7211 23.0949C11.4905 23.7629 11.2331 24.1482 10.9575 24.2705L9.67359 25.2915C9.18139 25.6449 8.66444 25.9626 8.12672 26.2421C7.24383 26.8034 6.28866 27.2419 5.2875 27.5457H5.22984C5.28188 27.3657 5.95547 25.9791 7.26609 23.3705L7.26328 23.3761ZM8.64984 22.8305V22.8755L8.44453 22.8952V22.8502L8.64984 22.8305ZM13.2609 22.6252L13.2933 23.0035C13.2492 23.1066 13.2023 23.1582 13.1527 23.1582L13.095 22.4902C13.2103 22.5296 13.2609 22.5746 13.268 22.6196L13.2609 22.6252ZM5.45203 25.9341C5.38734 26.2618 5.31141 26.4291 5.24672 26.4347V26.3897C5.24323 26.3024 5.26068 26.2154 5.29762 26.1362C5.33455 26.0569 5.38991 25.9876 5.45906 25.9341H5.45203ZM6.73594 27.7454C7.81288 27.3196 8.84187 26.7813 9.80578 26.1394V26.2294C9.80766 26.2669 9.66422 26.3911 9.37547 26.6021C8.84457 26.8306 8.34044 27.1168 7.87219 27.4557C6.94781 27.7763 6.48984 27.9755 6.49828 28.0533C5.94559 28.2599 5.40518 28.498 4.87969 28.7663C4.7876 28.7647 4.6973 28.7406 4.61672 28.696C4.60948 28.613 4.62698 28.5297 4.66702 28.4566C4.70707 28.3835 4.76785 28.3239 4.84172 28.2854C4.98185 28.2723 5.12301 28.2946 5.25234 28.35C5.50848 28.2381 5.7751 28.1519 6.04828 28.0927V27.9957L5.74594 28.021C6.02259 27.8507 6.31798 27.7129 6.62625 27.6104L6.78094 27.5977V27.6427C6.52359 27.6624 6.37594 27.7454 6.34359 27.8804C6.3435 27.893 6.34627 27.9056 6.3517 27.917C6.35712 27.9285 6.36507 27.9386 6.37493 27.9466C6.38479 27.9546 6.39633 27.9602 6.40868 27.9631C6.42102 27.966 6.43387 27.9661 6.44625 27.9633C6.54885 27.9029 6.64336 27.8296 6.7275 27.7454H6.73594ZM5.15672 26.5782V26.6232C5.15972 26.6365 5.15963 26.6504 5.15647 26.6637C5.15331 26.677 5.14716 26.6894 5.13848 26.7C5.1298 26.7105 5.11883 26.719 5.1064 26.7247C5.09396 26.7304 5.08039 26.7332 5.06672 26.7329V26.6879C5.06516 26.6747 5.06628 26.6614 5.07 26.6486C5.07372 26.6359 5.07997 26.6241 5.08838 26.6139C5.09678 26.6036 5.10716 26.5952 5.11891 26.589C5.13065 26.5829 5.14351 26.5792 5.15672 26.5782ZM7.55859 27.2335C7.31405 27.295 7.08159 27.3972 6.87094 27.5358H6.81891V27.4388C7.05709 27.4218 7.28099 27.3189 7.44891 27.1491C7.51453 27.1491 7.55109 27.1786 7.55859 27.2377V27.2335ZM5.0625 27.931L5.21719 27.9183V27.9704C5.16477 27.9801 5.11466 27.9996 5.06953 28.028H4.9725C4.97672 27.9844 5.00203 27.9507 5.0625 27.931ZM4.04156 28.5019L4.15125 28.5469C4.11328 28.8366 4.02891 28.9843 3.88125 28.9969C3.78266 28.9513 3.67484 28.9292 3.56625 28.9322L3.55359 28.7916C3.55359 28.734 3.57891 28.7016 3.65063 28.6819C3.72234 28.6622 3.75328 28.7199 3.76031 28.8225C3.84329 28.7084 3.93751 28.6029 4.04156 28.5075V28.5019ZM32.5308 15.8822L32.4478 15.8499L31.0795 16.0622C31.0218 16.0348 30.9576 16.0236 30.8939 16.0299C30.7705 16.0475 30.6483 16.0734 30.5283 16.1072L29.8673 16.3885L29.9194 16.4715C29.9701 16.4672 30.0187 16.4492 30.06 16.4194L30.2906 16.4391L30.2583 16.6571C30.1653 16.6897 30.0822 16.7456 30.017 16.8194C29.9517 16.8933 29.9065 16.9826 29.8856 17.079C29.5641 17.2205 29.4033 17.3232 29.4033 17.3869V17.4249H29.4553L29.5453 17.3799L29.648 17.5022L29.6606 17.6696C29.6672 17.7211 29.1234 18.8686 28.0294 21.1121C27.0853 23.2683 26.5884 24.4524 26.5388 24.6643C26.2181 24.7543 26.0255 24.8893 25.9763 25.0622C25.9763 25.1199 26.0789 25.1522 26.2659 25.1719V25.2549L26.183 25.3955L26.1956 25.5629C26.1956 25.6529 26.4403 25.7175 26.8988 25.7682C26.8988 25.7358 26.9114 25.7232 26.9438 25.7161C26.9366 25.9241 26.9065 26.1307 26.8538 26.3321H26.9058C27.0483 26.1798 27.1457 25.9909 27.187 25.7864H27.225C27.27 25.7864 27.322 25.8385 27.3797 25.9538C27.1264 26.3949 26.9218 26.8622 26.7694 27.3474L26.8214 27.4304H26.8734C27.0866 26.8053 27.3573 26.2013 27.682 25.6261C28.2445 25.5755 29.2186 25.4771 30.6042 25.3308L30.6872 25.2788C30.6881 25.3107 30.7055 25.3233 30.7392 25.3168H30.8292L30.9122 25.2647C30.9131 25.2966 30.9305 25.3093 30.9642 25.3027L32.0105 25.2127C32.2898 25.1874 32.4225 25.1039 32.4084 24.9624C32.4084 24.9244 32.5688 24.8794 32.9034 24.8344C32.9512 24.8368 32.9985 24.8453 33.0441 24.8597C33.0441 24.8344 33.2044 24.8077 33.5391 24.7768C33.5391 24.6038 33.6038 24.5068 33.7064 24.4955V24.4125C33.5972 24.4234 33.4895 24.447 33.3858 24.4829C33.2435 24.4834 33.1018 24.4659 32.9639 24.4308C32.9226 24.4606 32.874 24.4786 32.8233 24.4829L32.0906 24.5082L32.0006 24.5532C31.9997 24.5269 31.9823 24.5161 31.9486 24.5208H31.9106L31.8136 24.5658C31.8136 24.5414 31.7367 24.5199 31.583 24.5011L31.493 24.5532L31.313 24.5658V24.5208C32.2523 24.4177 32.7169 24.2893 32.7066 24.1355C32.7638 24.1346 32.7961 24.1622 32.8036 24.2185L33.0848 24.1482V24.0652L30.8348 24.1299C30.8348 24.1622 30.8222 24.1749 30.7898 24.1819L30.5086 24.1566C30.4453 24.1581 30.3844 24.1809 30.3356 24.2213L30.233 24.1833C30.0182 24.1963 29.8053 24.2307 29.5973 24.286C29.3834 24.2696 29.1686 24.2696 28.9547 24.286L28.447 24.331L28.2164 24.3057C28.4296 23.5448 28.7223 22.8086 29.0897 22.1091C29.1806 21.7995 29.3463 21.517 29.572 21.2865C29.6204 21.2891 29.668 21.3 29.7127 21.3188L30.0727 21.1964L30.2583 21.2288C30.6278 21.189 30.9905 21.1006 31.3369 20.9658C31.4143 20.9563 31.4928 20.963 31.5675 20.9855L31.8488 20.9208L32.6644 20.8505C33.0463 20.8122 33.4232 20.7349 33.7894 20.6199V20.5369C33.6366 20.5491 33.5573 20.5257 33.5517 20.4666C33.5395 20.3522 33.4284 20.3054 33.2184 20.326V20.243L33.4434 20.1783L34.0341 20.1263V20.0433H33.6684V19.9533L33.8991 19.9336C33.9567 19.9336 33.9891 19.8957 33.982 19.8436C33.6741 19.8436 33.5194 19.8436 33.5194 19.7986C32.4526 19.9052 31.3788 19.9245 30.3089 19.8563C30.2576 19.8622 30.209 19.8822 30.1683 19.914L30.0938 19.8C30.3341 19.1486 30.6696 18.5363 31.0894 17.9832C31.0851 18.0629 31.0609 18.1402 31.0191 18.2082V18.2461H31.1091C31.3341 17.7061 31.5197 17.4305 31.68 17.4179C32.348 17.3602 31.583 17.3152 33.0216 17.0902C33.0611 17.111 33.1049 17.1221 33.1495 17.1225C33.712 17.0082 34.4977 16.8905 35.5064 16.7696V16.6866L34.9664 16.7386V16.6557C35.0253 16.6515 35.0814 16.6288 35.1267 16.591V16.636C35.1724 16.6298 35.2152 16.6096 35.2491 16.5783C35.3208 16.5684 35.394 16.5771 35.4614 16.6036C35.6087 16.5614 35.7592 16.5313 35.9114 16.5136L36.2447 16.4813C36.3281 16.4297 36.3666 16.3829 36.36 16.3407V16.3027C36.2611 16.3065 36.1622 16.2999 36.0647 16.283C36.0647 16.238 36.0844 16.2057 36.142 16.193L36.765 16.1354L37.0547 16.065C37.0547 16.0974 37.0744 16.11 37.0927 16.11C37.1384 16.1038 37.1811 16.0837 37.215 16.0524C37.3 16.0668 37.3861 16.0734 37.4723 16.0721C37.5876 15.962 37.7226 15.8747 37.8703 15.8147C37.8201 15.7734 37.7842 15.7173 37.7677 15.6544L37.3458 15.6924C37.3378 15.6476 37.3226 15.6044 37.3008 15.5644C37.3008 15.5264 37.3908 15.4871 37.582 15.4491L37.665 15.4814L37.7423 15.4365C37.7419 15.442 37.7429 15.4476 37.7452 15.4527C37.7476 15.4577 37.7512 15.4621 37.7557 15.4653C37.7602 15.4686 37.7655 15.4706 37.7711 15.4712C37.7766 15.4718 37.7822 15.471 37.7873 15.4688L37.8647 15.4238C37.8642 15.4294 37.8652 15.4349 37.8676 15.44C37.8699 15.4451 37.8735 15.4494 37.878 15.4527C37.8826 15.4559 37.8879 15.458 37.8934 15.4586C37.899 15.4592 37.9046 15.4583 37.9097 15.4561H37.9477V15.3732H37.492L37.4147 15.4252V15.3802C35.4553 15.5386 34.3444 15.6324 34.0819 15.6615H33.6713C33.6722 15.6952 33.6445 15.7125 33.5883 15.7135L33.5053 15.6755L33.2156 15.7458C33.102 15.7485 32.9884 15.7443 32.8753 15.7332C32.8287 15.7689 32.7733 15.7912 32.715 15.7979C32.6503 15.7979 34.2689 15.7079 34.2183 15.6825L33.968 15.7529H33.93C33.8014 15.7604 33.6725 15.7562 33.5447 15.7402C33.483 15.7792 33.4123 15.8014 33.3394 15.8049C33.2816 15.8117 33.2231 15.8004 33.172 15.7725C33.1017 15.7922 32.8908 15.8429 32.5491 15.9132L32.5308 15.8822ZM32.6334 16.1396C32.6334 16.1719 32.6658 16.1846 32.7164 16.1775V16.2605H32.6334C32.5757 16.2673 32.5172 16.256 32.4661 16.2282C32.4208 16.266 32.3647 16.2887 32.3058 16.2929H32.3438L32.1131 16.2675V16.2296C32.2942 16.2203 32.4733 16.1877 32.6461 16.1325L32.6334 16.1396ZM32.8458 16.1199H32.8908V16.2029L32.7628 16.2155C32.7614 16.2035 32.7626 16.1914 32.7663 16.1799C32.77 16.1683 32.7761 16.1578 32.7842 16.1488C32.7924 16.1399 32.8023 16.1328 32.8134 16.1281C32.8245 16.1233 32.8365 16.121 32.8486 16.1213L32.8458 16.1199ZM33.3408 16.0679V16.1129C33.2164 16.125 33.0938 16.151 32.9752 16.1902H32.9302L32.9681 16.1002L33.3338 16.0622L33.3408 16.0679ZM29.693 16.4897L29.8336 16.4771V16.3941L29.693 16.4068V16.4897ZM30.7013 16.3997H30.7533L30.8503 16.4377C30.8529 16.4494 30.8527 16.4616 30.8495 16.4733C30.8464 16.4849 30.8405 16.4955 30.8324 16.5044C30.8242 16.5132 30.814 16.52 30.8027 16.524C30.7914 16.5281 30.7793 16.5293 30.7673 16.5277L30.6267 16.5404V16.4954C30.6141 16.4419 30.6464 16.4166 30.7041 16.3969L30.7013 16.3997ZM33.9356 16.5854V16.6233L33.6459 16.6486V16.6107L33.9356 16.5854ZM33.1073 16.7077V16.7527L32.94 16.7654V16.7204L33.1073 16.7077ZM33.3323 16.9004C33.39 16.9004 33.4153 16.92 33.4223 16.9777L33.1777 17.003V16.92L33.338 16.9004H33.3323ZM33.9539 16.8216L33.788 16.868L33.7289 16.8314L32.8247 16.8736V16.9186L34.328 16.8483V16.8033L33.9539 16.8216ZM32.9147 16.9904V17.0283L32.587 17.0607V17.0157L32.9147 16.9904ZM30.7631 18.6919V18.7369H30.8602C30.8607 18.6883 30.8717 18.6403 30.8925 18.5963V18.5133C30.8405 18.5133 30.7955 18.578 30.7645 18.6933L30.7631 18.6919ZM27.4556 23.4957V23.5336C27.4556 23.5913 27.4303 23.6236 27.3656 23.6307V23.5927C27.3586 23.5379 27.3895 23.5125 27.4542 23.4929L27.4556 23.4957ZM27.3727 23.6757C27.3453 23.8899 27.289 24.0995 27.2053 24.2986L27.0647 24.3113C27.1126 24.0958 27.1858 23.8867 27.2827 23.6883L27.3727 23.6757ZM28.9195 25.0172C28.9205 25.0641 28.8478 25.1133 28.7016 25.1649L28.4203 25.1452H28.3303V25.0622L28.928 25.0102L28.9195 25.0172ZM29.2008 25.0425V25.0805L28.9702 25.1002V25.0622L29.2008 25.0425Z" fill="#FBC02D"/>
</svg>
