<svg width="45" height="45" viewBox="0 0 45 45" fill="none" xmlns="http://www.w3.org/2000/svg">
<path d="M2.85769 10.5685C-1.12639 16.5124 -0.630414 24.2464 2.41301 30.5626C2.48526 30.7141 2.56112 30.863 2.63589 31.0118L2.77822 31.2964L2.86709 31.4603L3.02567 31.7551C3.12031 31.9278 3.21712 32.1002 3.3161 32.2722L3.48191 32.5556C3.59173 32.7394 3.70407 32.9219 3.81895 33.1031L3.96272 33.3334C4.1213 33.579 4.2835 33.8242 4.45111 34.0649L4.4652 34.0837L4.54756 34.1992C4.69278 34.4067 4.84113 34.6115 4.99261 34.8138L5.16022 35.035C5.29508 35.2108 5.43211 35.3856 5.57131 35.5596L5.72845 35.7546C5.9159 35.9843 6.1069 36.2108 6.30137 36.4341L6.31329 36.4465L6.33532 36.472C6.52642 36.6873 6.72055 36.8997 6.91764 37.1091L7.1044 37.3044C7.25732 37.4639 7.41229 37.6217 7.56931 37.7777L7.75968 37.9651C7.96896 38.1701 8.18137 38.371 8.39691 38.5677L8.40702 38.576L8.51792 38.6742C8.70865 38.8457 8.90167 39.0148 9.09698 39.1816L9.33685 39.38C9.49627 39.5127 9.65714 39.6432 9.81946 39.7714L10.0774 39.9751C10.2566 40.112 10.4371 40.2464 10.6189 40.3782L10.8161 40.5233L10.8703 40.5634C11.043 40.6868 11.2196 40.8056 11.3963 40.9245L11.6238 41.082C11.8948 41.2597 12.1693 41.4356 12.4471 41.6055L12.6747 41.7386C12.8787 41.8611 13.0846 41.981 13.2924 42.0982C13.4051 42.1612 13.5207 42.2208 13.6341 42.2812C13.7811 42.3611 13.9271 42.4421 14.0766 42.5197L14.1789 42.5711L14.3598 42.6618C14.5913 42.7768 14.8249 42.8889 15.0606 42.9982L15.2088 43.0672C15.4792 43.1899 15.7517 43.3076 16.0262 43.42L16.2253 43.5014C16.4796 43.603 16.7375 43.7035 16.9965 43.798L17.0933 43.8329C17.3776 43.936 17.6644 44.0316 17.9534 44.125L18.1611 44.1895C18.4552 44.2814 18.746 44.3912 19.0491 44.4493C38.3171 48.0968 43.9141 32.43 43.9141 32.43C39.2133 38.7871 30.8695 40.464 22.9638 38.597C22.6643 38.5269 22.3739 38.4297 22.0817 38.3401L21.8617 38.2708C21.5769 38.1801 21.2937 38.0845 21.012 37.9839L20.8954 37.94C20.6442 37.8479 20.3944 37.7518 20.1461 37.6517L19.9359 37.5658C19.6638 37.4545 19.3942 37.3382 19.1271 37.2167L18.9656 37.1424C18.737 37.0352 18.5095 36.9253 18.2832 36.8128L18.086 36.7146C17.9086 36.625 17.7331 36.5297 17.5582 36.436C17.4412 36.3718 17.322 36.3115 17.206 36.2447C16.9932 36.1257 16.7823 36.0029 16.5735 35.8765L16.36 35.7527C16.0827 35.5828 15.8081 35.4082 15.5364 35.2289L15.3142 35.0752C15.1167 34.9436 14.9212 34.8088 14.728 34.6705L14.5394 34.5329C14.3533 34.3963 14.1685 34.2577 13.9852 34.1171L13.74 33.9243C13.5716 33.7914 13.4049 33.6562 13.24 33.5186L13.0171 33.333C12.8072 33.1543 12.5996 32.9727 12.3944 32.7881L12.3261 32.7285C12.105 32.526 11.8868 32.3201 11.6715 32.1109L11.4869 31.9268C11.3276 31.7693 11.1708 31.6107 11.0166 31.4479L10.8324 31.2571C10.6366 31.0491 10.4442 30.8379 10.2551 30.6234L10.2266 30.5919C10.0273 30.3651 9.83211 30.1346 9.64101 29.9004L9.48784 29.7114C9.34506 29.5331 9.20453 29.3528 9.06628 29.1707L8.91203 28.9712C8.74674 28.7494 8.58452 28.5251 8.42544 28.2985C4.03641 22.0835 2.45925 13.5121 5.96722 6.47296M15.2254 5.56025C12.3438 9.8643 12.5006 15.6263 14.7482 20.1782C15.1247 20.9432 15.5505 21.6809 16.0226 22.3865C16.4543 23.0288 16.9329 23.793 17.5059 24.309C17.7154 24.5472 17.931 24.7796 18.1525 25.0057L18.323 25.1801C18.5382 25.3978 18.7583 25.6101 18.9833 25.8168L19.0101 25.8408L19.0166 25.8476C19.2682 26.0751 19.5254 26.2961 19.7878 26.5102L19.963 26.6519C20.2268 26.8629 20.4958 27.0668 20.7696 27.2635L20.7931 27.2819C20.9145 27.3689 21.038 27.4499 21.1612 27.5339L21.3357 27.6535C21.5322 27.7847 21.7315 27.9116 21.9335 28.0341L22.0184 28.0851C22.1933 28.1896 22.3694 28.2918 22.5469 28.3918L22.7351 28.4935C22.8576 28.5598 22.9801 28.6277 23.1047 28.6922L23.1607 28.7184C23.4146 28.8482 23.6707 28.9734 23.9323 29.0916L24.1028 29.1643C24.3119 29.2565 24.5233 29.3465 24.7349 29.4305L25.0059 29.5337C25.1984 29.6079 25.3917 29.6754 25.5864 29.7433L25.849 29.8306C26.1261 29.9199 26.3999 30.0328 26.6885 30.0826C41.5654 32.6411 45 20.7508 45 20.7508C41.9042 25.3792 35.9084 27.5879 29.5105 25.8637C29.2277 25.7865 28.9466 25.7023 28.6677 25.611L28.4145 25.5258C28.2168 25.4595 28.0204 25.3892 27.8253 25.3151L27.5595 25.2124C27.3466 25.1276 27.1351 25.0391 26.9251 24.9469L26.7543 24.8719C26.4927 24.7536 26.234 24.6287 25.9783 24.4973C25.8472 24.4309 25.7182 24.3608 25.5889 24.2918L25.3642 24.1718C25.1985 24.0785 25.0344 23.9822 24.8719 23.883L24.7541 23.8137C24.5529 23.6918 24.354 23.5658 24.1577 23.4357L23.9778 23.3112C23.8482 23.2242 23.7195 23.1358 23.5916 23.0461C23.319 22.8492 23.0509 22.6457 22.7875 22.4356L22.6065 22.2875C19.8062 19.9926 17.5861 16.8555 16.5309 13.2988C15.4248 9.61044 15.6632 5.46988 17.5796 2.10928M25.6272 1.81867C23.9287 4.41355 23.7618 7.63615 24.9405 10.5018C26.1835 13.544 28.7302 15.93 31.7029 17.0621C31.8253 17.109 31.9481 17.151 32.072 17.1948L32.235 17.2485C32.4102 17.3055 32.5839 17.3718 32.7649 17.4075C40.9794 19.0551 43.2075 13.0318 43.8003 12.1449C41.8489 15.0619 38.5689 15.762 34.5443 14.7481C34.2265 14.6682 33.8771 14.549 33.5708 14.4361C33.1772 14.2911 32.7913 14.1248 32.4145 13.9377C31.6993 13.5809 31.0201 13.1508 30.3872 12.6538C26.7861 9.81705 24.5489 4.40642 26.8988 0" fill="#0868AC"/>
</svg>
