<svg width="37" height="45" viewBox="0 0 37 45" fill="none" xmlns="http://www.w3.org/2000/svg">
<g clip-path="url(#clip0_321_145)">
<path d="M9.225 45C14.3172 45 18.45 41.64 18.45 37.5V30H9.225C4.1328 30 0 33.36 0 37.5C0 41.64 4.1328 45 9.225 45Z" fill="#0ACF83"/>
<path d="M0 22.5C0 18.36 4.1328 15 9.225 15H18.45V30H9.225C4.1328 30 0 26.64 0 22.5Z" fill="#A259FF"/>
<path d="M0 7.5C0 3.36 4.1328 0 9.225 0H18.45V15H9.225C4.1328 15 0 11.64 0 7.5Z" fill="#F24E1E"/>
<path d="M18.4502 0H27.6752C32.7674 0 36.9002 3.36 36.9002 7.5C36.9002 11.64 32.7674 15 27.6752 15H18.4502V0Z" fill="#FF7262"/>
<path d="M36.9002 22.5C36.9002 26.64 32.7674 30 27.6752 30C22.583 30 18.4502 26.64 18.4502 22.5C18.4502 18.36 22.583 15 27.6752 15C32.7674 15 36.9002 18.36 36.9002 22.5Z" fill="#1ABCFE"/>
</g>
<defs>
<clipPath id="clip0_321_145">
<rect width="36.9" height="45" fill="white"/>
</clipPath>
</defs>
</svg>
