<svg width="45" height="45" viewBox="0 0 45 45" fill="none" xmlns="http://www.w3.org/2000/svg">
<path d="M22.7405 26.2968C22.0641 26.6076 21.323 27.0126 19.8394 27.8268C19.2769 28.1432 18.6891 28.4596 18.1421 28.7578C18.1041 28.7198 18.0647 28.672 18.0268 28.6326C15.0919 25.4967 9.66381 23.2818 9.89443 19.0701C9.98021 17.5359 10.5076 13.5084 20.319 8.61746C28.3937 4.63778 34.8188 5.74027 35.9283 8.18574C37.523 11.6718 32.4844 18.1589 24.1454 19.0996C23.2224 19.2867 22.2693 19.2641 21.3562 19.0333C20.4432 18.8026 19.5937 18.3697 18.8705 17.7665C18.429 17.287 18.3629 17.2589 18.1997 17.3545C17.9312 17.4951 18.1041 17.9296 18.1997 18.1786C18.5178 18.7545 18.9482 19.2608 19.4653 19.6675C19.9824 20.0743 20.5759 20.3732 21.2105 20.5467C24.4922 21.256 27.9137 20.9171 30.9924 19.5778C36.0465 17.6217 39.9924 12.1837 38.8365 7.62465C37.6763 3.00231 30.0038 1.47793 22.7447 4.05699C18.1987 5.58895 13.9986 8.00055 10.3838 11.1543C6.38443 14.895 5.75162 18.1462 6.01037 19.5075C6.94131 24.3407 13.6041 27.4865 16.276 29.8167C16.1372 29.8917 16.0158 29.9587 15.9118 30.0178C14.5787 30.6801 9.49647 33.3365 8.22943 36.1462C6.79084 39.3299 8.46006 41.6123 9.56256 41.9189C11.224 42.3173 12.9685 42.1866 14.5521 41.5452C16.1357 40.9038 17.4793 39.7837 18.3952 38.3414C19.1733 37.1456 19.651 35.7796 19.7879 34.3596C19.9247 32.9395 19.7167 31.5075 19.1813 30.1851C19.497 29.933 19.8339 29.7086 20.1882 29.5143C20.8688 29.1121 21.5171 28.7156 22.0922 28.409C24.0619 27.4877 26.2107 27.0128 28.3852 27.0182C32.9499 27.5554 33.8513 30.4031 33.6783 31.6026C33.5972 32.0281 33.4259 32.4313 33.1761 32.7852C32.9263 33.139 32.6037 33.4354 32.2299 33.6543C31.9135 33.8554 31.808 33.9229 31.8362 34.0664C31.8741 34.2773 32.0274 34.2674 32.296 34.2295C32.9818 34.0127 33.586 33.5936 34.0293 33.0271C34.4725 32.4607 34.734 31.7734 34.7794 31.0556C34.9201 28.2431 32.2383 25.1578 27.4908 25.1859C26.0695 25.19 24.6624 25.4704 23.348 26.0114C23.1371 26.0985 22.9322 26.1923 22.7335 26.2926L22.7405 26.2968ZM15.9554 37.3204C14.4394 38.9699 12.3301 39.5929 11.4188 39.0656C10.4344 38.5031 10.824 36.0632 12.6844 34.3181C13.7854 33.3242 14.9765 32.4348 16.2422 31.6617C16.463 31.521 16.7893 31.3354 17.1816 31.0992L17.2871 31.0415L17.5177 30.9009C17.8492 32.0134 17.8793 33.194 17.6048 34.322C17.3303 35.4499 16.761 36.4847 15.9554 37.3204Z" fill="#CD6799"/>
</svg>
