<svg width="45" height="45" viewBox="0 0 45 45" fill="none" xmlns="http://www.w3.org/2000/svg">
<path d="M8.29949 38.2514L5.13965 2.8125H39.86L36.6959 38.2458L22.4787 42.1875L8.29949 38.2514Z" fill="#E44F26"/>
<path d="M22.5 39.1753L33.9891 35.9902L36.6919 5.71082H22.5V39.1753Z" fill="#F1662A"/>
<path d="M22.5 18.8537H16.7484L16.3519 14.4029H22.5V10.0562H11.6016L11.7056 11.2233L12.773 23.2004H22.5V18.8537ZM22.5 30.1416L22.4803 30.1472L17.64 28.8408L17.3306 25.3744H12.967L13.5759 32.1976L22.4803 34.6697L22.5 34.6641V30.1416Z" fill="#EBEBEB"/>
<path d="M22.4844 18.8537V23.2004H27.8366L27.3331 28.838L22.4844 30.1459V34.6684L31.3958 32.1976L31.4605 31.4635L32.4814 20.0209L32.5883 18.8537H22.4844ZM22.4844 10.0562V14.4029H32.9834L33.0706 13.4269L33.2689 11.2233L33.373 10.0562H22.4844Z" fill="white"/>
</svg>
