<svg width="45" height="45" viewBox="0 0 45 45" fill="none" xmlns="http://www.w3.org/2000/svg">
<g clip-path="url(#clip0_326_98)">
<path d="M41.3746 34.5382C38.9232 34.4711 37.0514 34.7003 35.4501 35.3746C34.9955 35.5669 34.2706 35.5711 34.1964 36.141C34.4464 36.4033 34.4847 36.7946 34.684 37.1173C35.0658 37.7339 35.7113 38.5633 36.2868 38.9989C36.9157 39.4728 37.564 39.9808 38.2383 40.3914C39.4386 41.1234 40.7777 41.541 41.9311 42.273C42.6125 42.7054 43.2878 43.2493 43.9526 43.7369C44.281 43.9773 44.5021 44.3521 44.9275 44.5033V44.4347C44.7036 44.1493 44.6459 43.7562 44.4399 43.4584L43.5336 42.5521C42.6476 41.3765 41.523 40.3439 40.3284 39.4868C39.3753 38.8016 37.2413 37.8774 36.8444 36.7693L36.7744 36.6993C37.4501 36.6223 38.2411 36.378 38.8659 36.2103C39.9135 35.9301 40.8504 36.0029 41.9311 35.7227L43.395 35.3054V35.0266C42.8484 34.4662 42.4585 33.7233 41.8626 33.2153C40.3013 31.8861 38.5983 30.5593 36.8447 29.4525C35.8723 28.8387 34.6707 28.439 33.6395 27.9187C33.2922 27.7443 32.6836 27.6522 32.4544 27.3611C31.9134 26.6717 31.618 25.797 31.2007 24.9923C30.3261 23.3072 29.4675 21.4686 28.6916 19.6956C28.1629 18.4873 27.8184 17.2952 27.1592 16.2116C23.9951 11.0096 20.5895 7.86906 15.3133 4.78304C14.19 4.12668 12.8386 3.86722 11.4102 3.52797L9.10996 3.3891C8.64168 3.19398 8.15546 2.62129 7.71601 2.3425C5.96839 1.23754 1.48457 -1.16434 0.18941 1.9941C-0.627621 3.98675 1.41179 5.93125 2.14093 6.94199C2.65316 7.64933 3.30812 8.44422 3.6734 9.24086C3.91527 9.76539 3.9564 10.2899 4.16242 10.8436C4.66797 12.2087 5.10988 13.6945 5.76519 14.9552C6.09601 15.5936 6.46128 16.2654 6.88035 16.8367C7.13593 17.1869 7.57644 17.3423 7.64675 17.8819C7.21539 18.4848 7.19078 19.42 6.94925 20.1822C5.86011 23.617 6.27214 27.8849 7.85558 30.4257C8.34179 31.2072 9.48718 32.8796 11.0608 32.2383C12.4382 31.6765 12.1306 29.9395 12.5247 28.4056C12.614 28.0582 12.5591 27.8027 12.7335 27.5692V27.6392L13.9886 30.1469C14.9171 31.6424 16.5634 33.2051 17.9602 34.2598C18.6841 34.8065 19.2539 35.7511 20.1905 36.0711V36.0011H20.1205C19.9391 35.7181 19.6551 35.6014 19.4244 35.375C18.8792 34.8395 18.2724 34.1747 17.8217 33.5623C16.5515 31.8389 15.4293 29.9518 14.4077 27.9883C13.9186 27.0503 13.4943 26.0164 13.0823 25.0619C12.923 24.6938 12.9258 24.1362 12.5946 23.9467C12.1443 24.6456 11.4795 25.2116 11.1307 26.0368C10.5746 27.3565 10.5018 28.9674 10.2958 30.6359C10.1734 30.6798 10.2272 30.6496 10.1559 30.7059C9.18484 30.471 8.84453 29.4726 8.48312 28.6144C7.57117 26.4474 7.40101 22.9578 8.20433 20.4613C8.41175 19.8159 9.35113 17.7835 8.97074 17.1862C8.78933 16.5917 8.19062 16.2468 7.85558 15.7922C7.44074 15.2304 7.02765 14.4904 6.74043 13.8407C5.99336 12.1514 5.64601 10.2537 4.85886 8.54547C4.48269 7.72843 3.84812 6.90156 3.3264 6.17664C2.74808 5.37191 2.10156 4.77847 1.65367 3.8064C1.49441 3.46047 1.2789 2.90675 1.51375 2.55273C1.58933 2.31226 1.69515 2.21207 1.93246 2.13402C2.33605 1.82218 3.46246 2.23843 3.88257 2.41281C5.00054 2.87687 5.93289 3.31914 6.88035 3.94668C7.33351 4.24726 7.79371 4.8298 8.34285 4.99187H8.97039C9.95089 5.21722 11.0495 5.06043 11.9668 5.33922C13.5871 5.83211 15.0387 6.59851 16.3571 7.43066C20.3726 9.96719 23.6576 13.576 25.9041 17.884C26.2652 18.5777 26.4219 19.2382 26.7405 19.9741C27.3817 21.4573 28.1907 22.9831 28.8291 24.4347C29.4675 25.8807 30.0884 27.3421 30.9905 28.5462C31.4644 29.1794 33.2936 29.5186 34.1257 29.8702C34.7093 30.1159 35.6652 30.3729 36.2172 30.7066C37.2719 31.3425 38.2935 32.1005 39.2839 32.7966C39.7768 33.1454 41.2983 33.9104 41.3739 34.5393L41.3746 34.5382ZM10.2244 7.98824C9.71359 7.97875 9.35254 8.04308 8.97074 8.12711V8.19707H9.03929C9.28363 8.69699 9.71359 9.01972 10.0156 9.45074L10.7117 10.9146L10.7816 10.8461C11.213 10.5413 11.4106 10.0551 11.4078 9.31222C11.2348 9.12941 11.2102 8.90301 11.059 8.68468C10.8614 8.395 10.4754 8.23152 10.2241 7.98859L10.2244 7.98824Z" fill="#00618A"/>
</g>
<defs>
<clipPath id="clip0_326_98">
<rect width="45" height="45" fill="white"/>
</clipPath>
</defs>
</svg>
